<?xml version="1.0" encoding="utf-8"?>
<!-- Generator: Adobe Illustrator 15.0.2, SVG Export Plug-In . SVG Version: 6.00 Build 0)  -->
<!DOCTYPE svg PUBLIC "-//W3C//DTD SVG 1.1//EN" "http://www.w3.org/Graphics/SVG/1.1/DTD/svg11.dtd">
<svg version="1.1" id="Слой_1" xmlns="http://www.w3.org/2000/svg" xmlns:xlink="http://www.w3.org/1999/xlink" x="0px" y="0px"
	 width="1593.227px" height="455px" viewBox="0 2.938 1593.227 455" enable-background="new 0 2.938 1593.227 455"
	 xml:space="preserve">
<path fill="#FFFFFF" d="M1062.733,661.23l31.83,14.604c0.367,0.17,0.742,0.307,1.119,0.414c2.576,0.771,6.504-0.229,8.4-2.131
	c0.277-0.277,0.541-0.576,0.785-0.898l21.006-28.021l-31.57,8.018L1062.733,661.23z M1136.456,685.08L1136.456,685.08
	l-29.283-10.287l19.922-26.572L1136.456,685.08z M1104.948,677.047L1104.948,677.047c-2.156,1.611-5.967,2.576-8.627,2.188
	c-0.285,0.248-0.555,0.508-0.807,0.779l-22.227,24.564l0.191,0.77l31.998-8.122l31.998-8.128l-0.193-0.771l-31.26-10.98
	C1105.676,677.225,1105.311,677.123,1104.948,677.047 M1072.459,701.33L1072.459,701.33l-9.359-36.861l30.189,13.854
	L1072.459,701.33z"/>
<path fill="#FFFFFF" d="M1033.936,825.697c-1.986,0.006-3.973,0.02-5.959,0.053l-1.354,0.014v-0.311
	c0-0.125-0.104-0.221-0.225-0.221h-2.35c-0.119,0-0.217,0.096-0.217,0.221v0.332c-1.039,0.008-2.074,0.014-3.115,0.014
	c-2.35-0.063-3.918,0.65-4.701,2.154s-1.18,2.805-1.18,3.918v28.012c0,1.117,0.375,2.402,1.129,3.871
	c0.752,1.475,2.336,2.203,4.752,2.203c0.592,0,1.189,0,1.777,0v0.396c0,0.156,0.125,0.283,0.279,0.283h3.459
	c0.152,0,0.277-0.127,0.277-0.283v-0.363c0.49,0.004,0.979,0.014,1.465,0.02c2.42,0.027,4.838,0.045,7.254,0.045
	c0.063,0.068,3.307,0.086,9.705,0.054c6.41-0.028,11.535-0.069,15.398-0.099c1.354-0.012,2.627-0.02,3.818-0.031v0.377
	c0,0.156,0.123,0.283,0.275,0.283h3.461c0.15,0,0.285-0.127,0.285-0.283v-0.396c0.619,0,1.209,0,1.766,0
	c2.484,0,4.088-0.754,4.809-2.254c0.715-1.5,1.076-2.838,1.076-4.018v-27.814c0-1.113-0.361-2.414-1.076-3.918
	c-0.721-1.504-2.322-2.217-4.809-2.154c-1.035,0-2.07-0.006-3.105-0.014v-0.418c0-0.117-0.104-0.217-0.223-0.217h-2.344
	c-0.123,0-0.217,0.1-0.217,0.217v0.396l-1.369-0.014c-1.973-0.033-3.951-0.047-5.926-0.053v-0.244c0-0.207-0.166-0.371-0.367-0.371
	h-0.891c0.109-1.26,0.031-2.789-0.219-4.572c-0.297-2.092-1.291-3.137-2.99-3.137h-13.92c-1.244,0-2.076,0.574-2.508,1.707
	c-0.424,1.15-0.635,2.346-0.635,3.573v2.429h-0.854c-0.242,0-0.443,0.194-0.443,0.439v0.175H1033.936L1033.936,825.697z
	 M1038.124,825.082L1038.124,825.082c-0.064-0.818-0.016-1.779,0.148-2.893c0.137-0.926,0.51-1.527,1.127-1.813
	c1.598,0.184,3.672,0.297,5.934,0.297c2.412,0,4.602-0.125,6.244-0.336c0.361,0.199,0.631,0.529,0.811,0.973
	c0.336,0.813,0.496,1.596,0.496,2.34c0,0.533-0.016,1.016-0.057,1.434h-1.096c-0.201,0-0.365,0.164-0.365,0.371v0.09h-12.027v-0.02
	c0-0.246-0.207-0.441-0.449-0.441L1038.124,825.082L1038.124,825.082z"/>
<path fill="#FFFFFF" d="M1197.393,564.523l28.018-13.051c0.205-0.096,0.447-0.006,0.543,0.197l0.289,0.627
	c0.098,0.201,0.008,0.441-0.199,0.535l-28.018,13.051c-0.203,0.096-0.445,0.004-0.537-0.193l-0.297-0.631
	C1197.1,564.861,1197.186,564.619,1197.393,564.523 M1200.969,572.211c-0.201,0.09-0.291,0.336-0.199,0.535l0.297,0.629
	c0.092,0.201,0.336,0.285,0.535,0.193l28.023-13.047c0.197-0.098,0.289-0.34,0.195-0.539l-0.293-0.627
	c-0.096-0.201-0.334-0.287-0.535-0.193L1200.969,572.211z M1204.815,580.469L1204.815,580.469l28.023-13.047
	c0.201-0.096,0.445-0.006,0.535,0.193l0.293,0.629c0.094,0.201,0.006,0.439-0.195,0.535l-28.023,13.049
	c-0.197,0.096-0.443,0.006-0.537-0.195l-0.291-0.625C1204.526,580.805,1204.612,580.563,1204.815,580.469 M1209.604,597.578
	L1209.604,597.578c0.605-0.279,1.326-0.016,1.609,0.592c0.281,0.604,0.018,1.326-0.586,1.605c-0.609,0.285-1.326,0.02-1.611-0.586
	C1208.733,598.584,1208.997,597.865,1209.604,597.578 M1205.708,589.217L1205.708,589.217c0.604-0.283,1.326-0.021,1.609,0.586
	c0.281,0.605,0.021,1.328-0.586,1.609c-0.609,0.285-1.328,0.018-1.609-0.586C1204.84,590.221,1205.098,589.498,1205.708,589.217
	 M1202.008,581.271L1202.008,581.271c0.604-0.285,1.322-0.021,1.607,0.586c0.279,0.604,0.018,1.324-0.584,1.604
	c-0.607,0.285-1.328,0.021-1.613-0.586C1201.139,582.273,1201.401,581.553,1202.008,581.271 M1198.161,573.008L1198.161,573.008
	c0.607-0.281,1.324-0.02,1.609,0.588c0.279,0.607,0.018,1.326-0.588,1.609c-0.605,0.281-1.324,0.02-1.609-0.586
	C1197.292,574.012,1197.555,573.291,1198.161,573.008 M1194.592,565.348L1194.592,565.348c0.605-0.283,1.328-0.02,1.605,0.586
	c0.281,0.609,0.02,1.328-0.584,1.605c-0.607,0.287-1.328,0.025-1.609-0.58C1193.723,566.35,1193.983,565.629,1194.592,565.348
	 M1208.52,588.418c-0.207,0.094-0.297,0.332-0.199,0.533l0.293,0.631c0.096,0.203,0.338,0.289,0.537,0.193l28.023-13.051
	c0.201-0.094,0.287-0.336,0.193-0.535l-0.293-0.627c-0.094-0.203-0.334-0.291-0.539-0.195L1208.52,588.418z M1226.891,543.053
	L1226.891,543.053l-39.311,18.309l21.426,46.008l39.314-18.309L1226.891,543.053z M1212.413,596.781L1212.413,596.781l28.018-13.051
	c0.203-0.096,0.451-0.006,0.541,0.195l0.297,0.629c0.09,0.199,0.002,0.441-0.201,0.535l-28.02,13.051
	c-0.201,0.096-0.441,0.008-0.539-0.193l-0.289-0.629C1212.12,597.117,1212.211,596.875,1212.413,596.781"/>
<path fill="#FFFFFF" d="M1348.094,890.912h-11.602c-1.373,0-2.488,0.318-2.488,0.715v49.299c0,0.396,1.115,0.713,2.488,0.713h11.602
	c1.371,0,2.488-0.314,2.488-0.713v-49.299C1350.583,891.23,1349.465,890.912,1348.094,890.912 M1348.995,935.617L1348.995,935.617
	l-0.182,0.291h-12.41l-0.18-0.291v-1.367l0.18-0.293h12.41l0.182,0.293V935.617z M1348.995,905.523L1348.995,905.523l-0.182,0.295
	h-12.41l-0.18-0.295v-1.363l0.18-0.291h12.41l0.182,0.291V905.523z M1348.995,899.506L1348.995,899.506l-0.182,0.293h-12.41
	l-0.18-0.293v-1.365l0.18-0.297h12.41l0.182,0.297V899.506z"/>
<path fill="#FFFFFF" d="M1385.426,935.078l-18.912-45.533c-0.146-0.361-1.297-0.229-2.568,0.297l-10.715,4.451
	c-1.271,0.523-2.178,1.244-2.021,1.607l18.906,45.533c0.15,0.363,1.303,0.23,2.566-0.293l10.719-4.449
	C1384.667,936.164,1385.575,935.445,1385.426,935.078 M1356.276,902.328L1356.276,902.328l-0.521-1.26l0.055-0.338l11.465-4.76
	l0.273,0.199l0.521,1.26l-0.053,0.346l-11.459,4.756L1356.276,902.328z M1358.584,907.889L1358.584,907.889l-0.523-1.26l0.057-0.34
	l11.463-4.762l0.275,0.199l0.523,1.268l-0.057,0.336l-11.461,4.758L1358.584,907.889z M1381.864,931.119L1381.864,931.119
	l-11.461,4.76l-0.277-0.201l-0.525-1.258l0.061-0.344l11.457-4.756l0.275,0.197l0.523,1.264L1381.864,931.119z"/>
<path fill="#FFFFFF" d="M1329.577,890.912h-11.605c-1.371,0-2.48,0.318-2.48,0.715v49.299c0,0.396,1.109,0.713,2.48,0.713h11.605
	c1.369,0,2.482-0.314,2.482-0.713v-49.299C1332.059,891.23,1330.946,890.912,1329.577,890.912 M1330.475,935.617L1330.475,935.617
	l-0.18,0.291h-12.412l-0.178-0.291v-1.367l0.178-0.293h12.412l0.18,0.293V935.617z M1330.475,905.523L1330.475,905.523l-0.18,0.295
	h-12.412l-0.178-0.295v-1.363l0.178-0.291h12.412l0.18,0.291V905.523z M1330.475,899.506L1330.475,899.506l-0.18,0.293h-12.412
	l-0.178-0.293v-1.365l0.178-0.297h12.412l0.18,0.297V899.506z"/>
<rect y="-0.877" fill="#5FC3B4" width="1593.227" height="461.754"/>
<path fill="#9C9EA1" d="M1396.321,311.588c6.232,8.496,13.125,17.791,20.629,28.012c8.285,11.285,17.572,23.828,27.904,37.832
	c2.721,3.688-2.568,6.727-11.883,6.701c-61.377-0.139-122.402-0.268-183.08-0.416c-60.281-0.146-120.254-0.281-179.826-0.42
	c-8.996-0.029-13.838-3.024-11.002-6.623c10.814-13.714,20.49-26.023,29.273-37.115c7.965-10.053,15.168-19.223,21.836-27.604
	c47.102-0.057,94.49-0.122,142.053-0.178C1300.022,311.718,1348.069,311.652,1396.321,311.588"/>
<path fill="#404041" d="M1366.811,319.33c2.986,0.004,5.963-0.005,8.941-0.009c1.021,0,2.021,0.255,2.209,0.569
	c0.418,0.695,0.838,1.398,1.252,2.092c0.207,0.328-0.463,0.6-1.471,0.6c-3.064,0.004-6.088,0.002-9.119,0.006
	c-1.008,0-2.039-0.262-2.215-0.594c-0.406-0.699-0.777-1.396-1.123-2.087C1365.12,319.593,1365.79,319.33,1366.811,319.33"/>
<path fill="#404041" d="M1369.463,323.334c2.771,0.004,5.529,0.006,8.297,0c1.256-0.005,2.494,0.324,2.734,0.734
	c0.596,0.979,1.188,1.967,1.818,2.967c0.248,0.416-0.578,0.762-1.895,0.758c-2.828,0.005-5.652,0.01-8.447,0.005
	c-1.314,0.007-2.566-0.347-2.791-0.755c-0.566-1.001-1.098-1.994-1.625-2.973C1367.338,323.668,1368.208,323.342,1369.463,323.334"
	/>
<path fill="#404041" d="M1372.375,328.588c2.871,0.002,5.705,0,8.539-0.005c1.295,0.003,2.574,0.348,2.83,0.771
	c0.623,1.041,1.246,2.076,1.916,3.139c0.266,0.443-0.617,0.803-1.906,0.801c-2.932,0.002-5.83,0.006-8.732,0
	c-1.352,0-2.611-0.36-2.844-0.799c-0.602-1.05-1.195-2.095-1.754-3.133C1370.198,328.938,1371.09,328.594,1372.375,328.588"/>
<path fill="#404041" d="M1375.479,334.125c2.916,0.006,5.828,0.011,8.777,0.009c1.32-0.009,2.639,0.36,2.912,0.808
	c0.623,1.09,1.318,2.188,2.02,3.301c0.281,0.473-0.615,0.852-1.977,0.85c-2.979,0.002-5.961,0.004-8.973-0.004
	c-1.359-0.002-2.693-0.385-2.938-0.844c-0.6-1.11-1.227-2.215-1.809-3.303C1373.25,334.494,1374.122,334.131,1375.479,334.125"/>
<path fill="#404041" d="M1378.725,339.963c3.027,0.008,6.018,0.006,9.012,0.002c1.395-0.004,2.729,0.395,3.018,0.868
	c0.688,1.155,1.428,2.317,2.168,3.495c0.297,0.49-0.617,0.9-2.014,0.893c-3.104,0.004-6.162,0.004-9.23-0.004
	c-1.43-0.004-2.77-0.407-3.037-0.896c-0.664-1.171-1.295-2.338-1.912-3.495C1376.438,340.354,1377.36,339.961,1378.725,339.963"/>
<path fill="#404041" d="M1382.225,346.145c3.047,0.01,6.125,0.01,9.23,0.01c1.406,0.002,2.813,0.404,3.145,0.903
	c0.742,1.235,1.48,2.464,2.271,3.714c0.313,0.52-0.619,0.939-2.094,0.938c-3.152-0.004-6.307,0.003-9.463-0.004
	c-1.438-0.005-2.895-0.432-3.172-0.949c-0.707-1.242-1.369-2.478-1.998-3.702C1379.879,346.557,1380.788,346.143,1382.225,346.145"
	/>
<path fill="#404041" d="M1351.02,319.344c2.979,0.002,5.959,0.002,8.967-0.002c0.988-0.008,1.939,0.256,2.137,0.57
	c0.355,0.693,0.723,1.389,1.086,2.082c0.197,0.33-0.49,0.598-1.557,0.598c-3.031,0.004-6.061,0.01-9.088,0.007
	c-1.043-0.003-1.99-0.267-2.141-0.595c-0.35-0.691-0.666-1.385-0.982-2.084C1349.301,319.605,1350.024,319.344,1351.02,319.344"/>
<path fill="#404041" d="M1338.598,323.359c7.621,0,15.236-0.012,22.887-0.02c1.316,0.003,2.637,0.354,2.861,0.785
	c0.496,0.945,0.957,1.898,1.494,2.863c0.266,0.451-0.676,0.814-2.061,0.813c-7.814,0.004-15.604,0.014-23.359,0.008
	c-1.383,0-2.646-0.355-2.822-0.811c-0.398-0.961-0.797-1.911-1.16-2.858C1336.303,323.715,1337.278,323.359,1338.598,323.359"/>
<path fill="#404041" d="M1351.483,328.6c4.225-0.003,8.445-0.005,12.705-0.008c1.414,0.003,2.715,0.375,2.945,0.82
	c0.525,1.01,1.076,2.011,1.643,3.025c0.248,0.467-0.746,0.857-2.164,0.855c-4.32,0-8.672,0.002-12.961,0.002
	c-1.447-0.002-2.748-0.381-2.98-0.85c-0.477-1.021-0.912-2.021-1.352-3.027C1349.122,328.967,1350.127,328.6,1351.483,328.6"/>
<path fill="#404041" d="M1341.045,334.138c8.641-0.007,17.314-0.009,25.99-0.009c1.459,0.002,2.793,0.39,3.076,0.871
	c0.549,1.051,1.104,2.11,1.693,3.178c0.262,0.496-0.717,0.912-2.176,0.908c-8.908,0.006-17.787,0.004-26.637-0.005
	c-1.453,0.003-2.801-0.407-2.988-0.896c-0.436-1.071-0.836-2.136-1.229-3.192C1338.598,334.521,1339.653,334.135,1341.045,334.138"
	/>
<path fill="#404041" d="M1361.268,339.96c2.959,0.007,5.984,0.004,8.977,0.002c1.365,0.002,2.732,0.395,2.979,0.868
	c0.605,1.155,1.18,2.322,1.826,3.488c0.254,0.487-0.658,0.891-2.086,0.894c-3.063,0.009-6.131,0.009-9.162,0.005
	c-1.432-0.007-2.775-0.409-3.004-0.902c-0.568-1.168-1.102-2.334-1.631-3.489C1358.952,340.356,1359.901,339.964,1361.268,339.96"/>
<path fill="#404041" d="M1364.206,346.143c3.111,0.009,6.189,0.006,9.264,0.006c1.406,0.004,2.777,0.397,3.041,0.904
	c0.643,1.217,1.279,2.453,1.971,3.703c0.27,0.52-0.695,0.938-2.166,0.942c-3.154-0.003-6.314-0.003-9.434-0.011
	c-1.473,0.003-2.826-0.423-3.098-0.949c-0.609-1.24-1.174-2.475-1.732-3.691C1361.821,346.536,1362.801,346.139,1364.206,346.143"/>
<path fill="#404041" d="M1336.446,319.356c2.561,0.001,5.148-0.007,7.734-0.012c0.994,0,1.951,0.257,2.088,0.569
	c0.311,0.699,0.617,1.402,0.955,2.096c0.143,0.326-0.598,0.589-1.602,0.598c-2.633,0.005-5.271,0.003-7.906,0
	c-1.008,0-1.934-0.266-2.059-0.594c-0.295-0.69-0.564-1.392-0.828-2.085C1334.709,319.618,1335.454,319.356,1336.446,319.356"/>
<path fill="#404041" d="M1321.663,319.37c2.531,0.003,5.119,0.003,7.711-0.002c1.02-0.01,1.93,0.257,2.041,0.566
	c0.256,0.694,0.508,1.388,0.795,2.083c0.117,0.33-0.637,0.601-1.652,0.601c-2.627,0.005-5.229,0.009-7.836,0.007
	c-1.035,0-1.943-0.27-2.045-0.598c-0.248-0.699-0.461-1.392-0.676-2.093C1319.903,319.631,1320.668,319.377,1321.663,319.37"/>
<path fill="#404041" d="M1306.911,319.384c2.527,0.003,5.115-0.006,7.676-0.009c1.053,0,1.943,0.256,2.035,0.567
	c0.174,0.696,0.371,1.392,0.605,2.088c0.09,0.321-0.654,0.597-1.668,0.597c-2.633,0.004-5.236,0.001-7.836,0.001
	c-1.041,0.005-1.93-0.263-2.006-0.59c-0.191-0.692-0.352-1.384-0.516-2.081C1305.155,319.638,1305.917,319.384,1306.911,319.384"/>
<path fill="#404041" d="M1292.178,319.396c2.563,0.004,5.121-0.006,7.709-0.012c0.994,0,1.867,0.254,1.934,0.567
	c0.15,0.699,0.297,1.396,0.447,2.088c0.068,0.327-0.697,0.589-1.711,0.597c-2.629,0.004-5.234,0.002-7.807,0
	c-1.045,0.006-1.939-0.265-1.961-0.592c-0.145-0.691-0.254-1.389-0.361-2.078C1290.381,319.656,1291.155,319.396,1292.178,319.396"
	/>
<path fill="#404041" d="M1277.475,319.402c2.531,0.003,5.094,0.003,7.656-0.002c1.021,0,1.869,0.262,1.943,0.564
	c0.066,0.697,0.168,1.396,0.264,2.086c0.076,0.328-0.715,0.593-1.758,0.593c-2.633,0.008-5.236,0.012-7.807,0.012
	c-1.014-0.001-1.893-0.265-1.922-0.591c-0.086-0.695-0.141-1.395-0.195-2.092C1275.631,319.664,1276.424,319.41,1277.475,319.402"/>
<path fill="#404041" d="M1262.772,319.424c2.533,0.003,5.092-0.004,7.656-0.01c0.992,0,1.852,0.254,1.871,0.566
	c0.047,0.693,0.09,1.386,0.137,2.083c0.021,0.322-0.787,0.594-1.832,0.594c-2.602,0.005-5.207,0.009-7.777,0.007
	c-1.012,0-1.842-0.271-1.873-0.588c-0.035-0.696-0.043-1.385-0.045-2.08C1260.936,319.683,1261.78,319.424,1262.772,319.424"/>
<path fill="#404041" d="M1248.094,319.43c2.504,0.002,5.064,0.002,7.627,0.004c0.994-0.007,1.832,0.248,1.83,0.563
	c-0.008,0.695-0.014,1.389,0.012,2.084c-0.004,0.319-0.832,0.596-1.877,0.596c-2.604,0.004-5.207,0.001-7.779,0
	c-1.01,0.006-1.82-0.262-1.801-0.588c0.021-0.694,0.066-1.391,0.111-2.086C1246.272,319.688,1247.1,319.43,1248.094,319.43"/>
<path fill="#404041" d="M1233.413,319.45c2.531,0.002,5.1-0.005,7.66-0.011c1.025-0.01,1.814,0.254,1.789,0.565
	c-0.09,0.694-0.15,1.386-0.176,2.078c-0.025,0.324-0.879,0.592-1.92,0.592c-2.605,0.005-5.178,0.009-7.727,0.007
	c-1.037,0-1.83-0.263-1.783-0.587c0.072-0.694,0.17-1.392,0.266-2.083C1231.569,319.701,1232.418,319.45,1233.413,319.45"/>
<path fill="#404041" d="M1218.793,319.463c2.502-0.006,5.066-0.006,7.627-0.01c1.027,0,1.799,0.254,1.75,0.563
	c-0.146,0.695-0.252,1.383-0.334,2.076c-0.055,0.334-0.924,0.594-1.934,0.6c-2.605,0.008-5.184,0.002-7.76,0.002
	c-1.041-0.002-1.809-0.264-1.738-0.586c0.15-0.695,0.303-1.382,0.453-2.076C1216.928,319.723,1217.797,319.463,1218.793,319.463"/>
<path fill="#404041" d="M1204.167,319.469c2.564,0,5.129-0.005,7.662-0.01c0.994,0,1.75,0.261,1.676,0.571
	c-0.195,0.69-0.361,1.386-0.492,2.08c-0.076,0.323-0.967,0.591-1.979,0.591c-2.574,0.006-5.184,0.01-7.725,0.008
	c-1.012,0-1.793-0.27-1.695-0.594c0.174-0.691,0.377-1.385,0.605-2.078C1202.313,319.729,1203.206,319.476,1204.167,319.469"/>
<path fill="#404041" d="M1189.633,319.489c2.502,0,5.033-0.003,7.6-0.011c0.969,0,1.697,0.252,1.635,0.563
	c-0.217,0.694-0.436,1.387-0.648,2.079c-0.07,0.325-0.979,0.593-2.02,0.589c-2.578,0.006-5.189,0.01-7.732,0.01
	c-1.008-0.002-1.77-0.27-1.619-0.587c0.225-0.698,0.48-1.394,0.738-2.081C1187.698,319.74,1188.606,319.489,1189.633,319.489"/>
<path fill="#404041" d="M1175.032,319.495c2.502,0.003,5.066-0.006,7.604-0.003c0.994,0,1.738,0.254,1.621,0.563
	c-0.299,0.693-0.568,1.389-0.807,2.077c-0.123,0.323-1.084,0.589-2.096,0.589c-2.578,0.006-5.152,0.002-7.695,0.011
	c-1.016,0-1.758-0.271-1.613-0.597c0.309-0.688,0.615-1.373,0.922-2.072C1173.102,319.753,1174.065,319.492,1175.032,319.495"/>
<path fill="#404041" d="M1160.485,319.508c2.508,0.002,5.039,0.002,7.605-0.002c0.965-0.008,1.691,0.252,1.549,0.563
	c-0.32,0.689-0.641,1.385-0.93,2.073c-0.146,0.324-1.102,0.591-2.145,0.59c-2.574,0.007-5.15,0.009-7.729,0.009
	c-0.982-0.002-1.674-0.262-1.508-0.585c0.332-0.691,0.689-1.39,1.078-2.079C1158.575,319.766,1159.489,319.518,1160.485,319.508"/>
<path fill="#404041" d="M1145.969,319.52c2.504,0,5.039-0.002,7.578-0.001c0.994,0,1.674,0.251,1.508,0.563
	c-0.371,0.689-0.744,1.38-1.084,2.072c-0.205,0.33-1.145,0.587-2.188,0.587c-2.574,0.005-5.125,0.01-7.67,0.01
	c-1.012-0.001-1.688-0.261-1.494-0.584c0.381-0.696,0.793-1.38,1.203-2.069C1144.004,319.777,1144.977,319.52,1145.969,319.52"/>
<path fill="#404041" d="M1129.637,319.539c2.926,0.004,5.857-0.002,8.785-0.009c0.973-0.007,1.66,0.251,1.469,0.562
	c-0.432,0.69-0.854,1.383-1.252,2.075c-0.191,0.319-1.186,0.589-2.229,0.589c-2.98,0.005-5.922,0.01-8.869,0.008
	c-1.012,0-1.66-0.266-1.443-0.582c0.439-0.695,0.91-1.387,1.385-2.082C1127.688,319.789,1128.674,319.539,1129.637,319.539"/>
<path fill="#404041" d="M1322.348,323.373c2.703,0.003,5.375-0.002,8.111-0.006c1.229,0.002,2.389,0.313,2.5,0.709
	c0.365,0.991,0.729,1.99,1.131,2.994c0.148,0.406-0.766,0.748-2.021,0.748c-2.797,0.006-5.523,0.008-8.289,0.006
	c-1.26-0.002-2.432-0.338-2.521-0.746c-0.33-1.006-0.637-2-0.938-2.992C1320.198,323.688,1321.114,323.373,1322.348,323.373"/>
<path fill="#404041" d="M1306.03,323.384c2.674,0.002,5.377-0.003,8.082-0.008c1.229,0,2.334,0.314,2.445,0.716
	c0.283,0.99,0.564,1.984,0.887,2.989c0.109,0.407-0.83,0.741-2.119,0.741c-2.729,0.002-5.498,0.008-8.23,0.002
	c-1.283,0.009-2.395-0.329-2.488-0.743c-0.225-1.003-0.439-1.998-0.656-2.987C1303.825,323.7,1304.77,323.381,1306.03,323.384"/>
<path fill="#404041" d="M1289.711,323.391c2.672,0.002,5.375-0.002,8.08-0.007c1.201,0,2.279,0.321,2.359,0.714
	c0.195,0.988,0.432,1.983,0.67,2.986c0.078,0.414-0.918,0.749-2.182,0.746c-2.729,0.004-5.494,0.01-8.227,0.008
	c-1.26-0.004-2.346-0.332-2.402-0.744c-0.174-1.002-0.344-1.997-0.479-2.984C1287.51,323.715,1288.475,323.391,1289.711,323.391"/>
<path fill="#404041" d="M1273.417,323.404c2.676,0.003,5.377-0.002,8.057-0.006c1.229,0,2.277,0.32,2.33,0.711
	c0.117,0.986,0.236,1.982,0.396,2.984c0.049,0.406-0.951,0.746-2.205,0.744c-2.797,0.004-5.531,0.01-8.268,0.004
	c-1.26,0-2.313-0.336-2.342-0.74c-0.09-1-0.115-1.994-0.172-2.979C1271.188,323.723,1272.186,323.404,1273.417,323.404"/>
<path fill="#404041" d="M1257.118,323.414c2.676,0.002,5.385,0.003,8.086,0c1.232-0.008,2.262,0.313,2.277,0.711
	c0.006,0.989,0.047,1.975,0.117,2.975c0.047,0.41-0.98,0.746-2.236,0.75c-2.799,0.007-5.531,0-8.266-0.002
	c-1.256,0.009-2.287-0.33-2.277-0.74c0.023-0.998,0.047-1.991,0.066-2.979C1254.897,323.731,1255.887,323.42,1257.118,323.414"/>
<path fill="#404041" d="M1240.909,323.428c2.674-0.004,5.354-0.002,8.027-0.006c1.232,0,2.234,0.313,2.215,0.711
	c-0.039,0.984-0.086,1.979-0.125,2.979c-0.014,0.403-1.033,0.747-2.293,0.742c-2.766,0.005-5.5,0.01-8.207,0.008
	c-1.258-0.003-2.258-0.337-2.219-0.743c0.074-0.997,0.207-1.989,0.309-2.976C1238.663,323.745,1239.682,323.428,1240.909,323.428"/>
<path fill="#404041" d="M1224.7,323.436c2.674,0.006,5.35-0.001,8.025-0.007c1.232,0,2.178,0.321,2.158,0.719
	c-0.119,0.981-0.242,1.978-0.363,2.976c-0.053,0.404-1.131,0.742-2.361,0.742c-2.766,0.004-5.471,0.009-8.205,0.004
	c-1.262,0-2.232-0.335-2.156-0.74c0.15-0.997,0.338-1.992,0.521-2.976C1222.395,323.752,1223.467,323.435,1224.7,323.436"/>
<path fill="#404041" d="M1208.516,323.443c2.678,0.003,5.354,0.004,8.027,0c1.203-0.01,2.152,0.313,2.1,0.709
	c-0.229,0.981-0.434,1.974-0.604,2.973c-0.088,0.402-1.191,0.742-2.445,0.742c-2.74,0.002-5.447,0.006-8.182,0.005
	c-1.23-0.003-2.178-0.335-2.07-0.739c0.238-0.998,0.473-1.994,0.768-2.978C1206.215,323.765,1207.313,323.451,1208.516,323.443"/>
<path fill="#404041" d="M1192.387,323.458c2.645,0.001,5.295-0.003,7.975-0.007c1.227,0.003,2.119,0.317,2.01,0.71
	c-0.285,0.979-0.535,1.976-0.789,2.974c-0.115,0.404-1.254,0.74-2.506,0.738c-2.771,0.006-5.482,0.01-8.184,0.008
	c-1.26-0.002-2.148-0.334-2.043-0.738c0.352-0.994,0.695-1.988,1.039-2.973C1190.024,323.781,1191.127,323.458,1192.387,323.458"/>
<path fill="#404041" d="M1176.196,323.473c2.674-0.005,5.322-0.002,8.031-0.006c1.203,0,2.1,0.318,1.955,0.709
	c-0.363,0.979-0.727,1.976-1.094,2.969c-0.148,0.404-1.279,0.734-2.504,0.742c-2.771,0.002-5.48,0-8.182-0.006
	c-1.264,0.008-2.156-0.324-1.982-0.729c0.432-0.993,0.854-1.988,1.281-2.969C1173.875,323.788,1174.995,323.473,1176.196,323.473"/>
<path fill="#404041" d="M1160.125,323.473c2.646,0.004,5.293,0.005,7.973,0c1.232,0,2.074,0.318,1.898,0.707
	c-0.443,0.983-0.891,1.979-1.307,2.969c-0.184,0.408-1.338,0.741-2.564,0.738c-2.773,0.004-5.48,0.012-8.188,0.004
	c-1.229,0-2.088-0.334-1.887-0.733c0.475-0.993,0.986-1.986,1.486-2.966C1157.745,323.797,1158.895,323.48,1160.125,323.473"/>
<path fill="#404041" d="M1144.047,323.489c2.65,0.002,5.297-0.003,7.979-0.009c1.201,0,2.016,0.315,1.842,0.716
	c-0.525,0.978-1.051,1.972-1.578,2.961c-0.213,0.405-1.402,0.741-2.627,0.739c-2.742,0.005-5.447,0.007-8.156,0.005
	c-1.227,0-2.064-0.331-1.826-0.735c0.559-0.991,1.146-1.982,1.73-2.961C1141.641,323.809,1142.819,323.489,1144.047,323.489"/>
<path fill="#404041" d="M1127.475,323.503c2.682,0.001,5.363-0.002,8.07-0.007c1.26,0.002,2.047,0.324,1.836,0.722
	c-0.598,0.968-1.197,1.944-1.77,2.929c-0.252,0.421-1.51,0.754-2.77,0.762c-2.77,0.004-5.547,0.008-8.281,0.004
	c-1.258-0.002-2.063-0.338-1.783-0.754c0.643-0.984,1.303-1.96,1.963-2.932C1124.977,323.832,1126.245,323.503,1127.475,323.503"/>
<path fill="#404041" d="M1124.2,328.693c5.686,0,11.379,0,17.104-0.008c1.387,0,2.287,0.36,2.031,0.813
	c-0.566,0.993-1.129,1.984-1.666,2.99c-0.264,0.461-1.611,0.84-3.004,0.847c-5.852-0.002-11.703-0.005-17.49-0.005
	c-1.395,0.005-2.301-0.378-1.988-0.838c0.65-1.003,1.357-2.004,2.031-2.99C1121.52,329.057,1122.84,328.691,1124.2,328.693"/>
<path fill="#404041" d="M1120.62,334.162c6.947,0.006,13.893,0,20.875-0.001c1.426,0.001,2.348,0.385,2.09,0.857
	c-0.578,1.043-1.162,2.095-1.713,3.147c-0.27,0.491-1.654,0.898-3.086,0.895c-7.172,0.006-14.283-0.004-21.355-0.002
	c-1.471,0.002-2.357-0.397-2.023-0.889c0.684-1.056,1.395-2.108,2.104-3.158C1117.829,334.549,1119.221,334.161,1120.62,334.162"/>
<path fill="#404041" d="M1116.809,339.934c10.244-0.002,20.521,0.008,30.791,0.008c1.439,0.002,2.43,0.412,2.178,0.907
	c-0.564,1.101-1.127,2.208-1.691,3.323c-0.264,0.525-1.643,0.949-3.146,0.951c-10.521-0.01-21.049-0.01-31.504-0.021
	c-1.473,0.006-2.344-0.421-2.023-0.938c0.719-1.112,1.477-2.223,2.219-3.322C1113.969,340.342,1115.409,339.932,1116.809,339.934"/>
<path fill="#404041" d="M1112.827,346.023c4.354,0.01,8.742,0.011,13.137,0.008c1.48-0.003,2.424,0.431,2.107,0.97
	c-0.693,1.163-1.389,2.337-2.055,3.513c-0.287,0.55-1.82,0.996-3.301,1.01c-4.5-0.007-9.006-0.012-13.465-0.021
	c-1.514-0.005-2.441-0.453-2.07-0.999c0.76-1.178,1.527-2.354,2.314-3.517C1109.852,346.455,1111.379,346.028,1112.827,346.023"/>
<path fill="#404041" d="M1148.286,328.68c2.91,0.002,5.814,0,8.754-0.006c1.361,0.003,2.26,0.364,2.039,0.805
	c-0.49,1.003-0.98,1.999-1.451,3.023c-0.225,0.461-1.539,0.825-2.896,0.82c-3.006,0.005-5.979,0.008-8.947,0.01
	c-1.359-0.002-2.279-0.377-2.035-0.83c0.545-1.013,1.104-2.02,1.66-3.021C1145.651,329.042,1146.958,328.684,1148.286,328.68"/>
<path fill="#404041" d="M1165.131,328.678c2.902,0.005,5.813,0,8.719-0.002c1.355-0.007,2.322,0.354,2.141,0.793
	c-0.408,1.002-0.85,2.004-1.232,3.028c-0.158,0.454-1.438,0.826-2.797,0.823c-3.006,0.003-5.982,0.006-8.957,0.01
	c-1.387-0.004-2.309-0.372-2.121-0.832c0.451-1.022,0.93-2.022,1.4-3.023C1162.497,329.033,1163.774,328.676,1165.131,328.678"/>
<path fill="#404041" d="M1181.969,328.67c2.906,0.002,5.814,0,8.75-0.004c1.357,0.001,2.35,0.354,2.205,0.797
	c-0.359,1.002-0.652,2.004-0.951,3.029c-0.148,0.455-1.398,0.828-2.758,0.834c-3.039,0.002-6.016,0.004-8.984,0
	c-1.391,0-2.371-0.379-2.195-0.832c0.4-1.023,0.766-2.023,1.16-3.027C1179.366,329.028,1180.612,328.667,1181.969,328.67"/>
<path fill="#404041" d="M1198.836,328.662c2.904,0.002,5.846,0,8.783-0.005c1.354,0.001,2.373,0.366,2.27,0.799
	c-0.273,1.011-0.49,2.017-0.703,3.032c-0.111,0.457-1.332,0.828-2.723,0.832c-3.004,0.003-6.006,0.008-8.979,0.003
	c-1.391-0.003-2.398-0.378-2.266-0.825c0.316-1.023,0.596-2.029,0.902-3.032C1196.262,329.027,1197.481,328.658,1198.836,328.662"/>
<path fill="#404041" d="M1215.731,328.652c2.904,0.006,5.846,0,8.781-0.002c1.357,0,2.4,0.362,2.367,0.797
	c-0.16,1.005-0.322,2.01-0.484,3.039c-0.072,0.453-1.26,0.829-2.65,0.824c-3.002,0.005-6.006,0.008-8.977,0
	c-1.391,0.01-2.438-0.36-2.334-0.823c0.201-1.021,0.424-2.024,0.656-3.027C1213.186,329.019,1214.374,328.658,1215.731,328.652"/>
<path fill="#404041" d="M1232.653,328.652c2.939,0.002,5.875,0,8.809-0.006c1.361-0.005,2.471,0.357,2.434,0.795
	c-0.07,1.004-0.184,2.011-0.229,3.039c-0.031,0.454-1.191,0.832-2.582,0.836c-3.035,0.002-6.002,0.006-9.004,0
	c-1.393,0-2.471-0.377-2.404-0.836c0.146-1.026,0.26-2.031,0.402-3.029C1230.141,329.01,1231.295,328.65,1232.653,328.652"/>
<path fill="#404041" d="M1249.606,328.645c2.939,0.006,5.902,0,8.867-0.006c1.328,0.002,2.465,0.359,2.471,0.793
	c0.006,1.011-0.02,2.018,0.021,3.047c0.002,0.455-1.121,0.839-2.514,0.839c-3.033,0.003-6.037,0.005-9.037,0
	c-1.391-0.005-2.496-0.382-2.473-0.839c0.029-1.025,0.123-2.033,0.188-3.041C1247.122,329.002,1248.249,328.645,1249.606,328.645"/>
<path fill="#404041" d="M1266.584,328.636c2.969,0.002,5.932,0,8.896-0.005c1.359,0.003,2.494,0.357,2.537,0.801
	c0.088,1.014,0.146,2.021,0.271,3.043c0.041,0.462-1.057,0.832-2.408,0.829c-3.035,0.003-6.104,0.007-9.098,0
	c-1.393,0.007-2.533-0.372-2.541-0.821c-0.021-1.027-0.049-2.036-0.07-3.045C1264.165,328.994,1265.262,328.639,1266.584,328.636"/>
<path fill="#404041" d="M1283.625,328.635c2.932-0.006,5.928-0.008,8.891-0.012c1.359,0.002,2.523,0.358,2.605,0.801
	c0.174,1.016,0.348,2.022,0.521,3.047c0.084,0.457-0.945,0.833-2.334,0.83c-3.066,0.003-6.102,0.006-9.102,0
	c-1.387,0.008-2.59-0.365-2.641-0.83c-0.111-1.022-0.215-2.029-0.324-3.041C1281.202,328.986,1282.264,328.633,1283.625,328.635"/>
<path fill="#404041" d="M1300.688,328.617c2.963,0.007,5.898,0,8.893-0.004c1.359,0.002,2.555,0.359,2.67,0.805
	c0.256,1.01,0.516,2.015,0.781,3.049c0.115,0.458-0.883,0.834-2.273,0.84c-3.063,0.002-6.092,0.008-9.127,0.002
	c-1.354-0.002-2.59-0.384-2.676-0.842c-0.227-1.022-0.418-2.035-0.576-3.045C1298.297,328.98,1299.329,328.624,1300.688,328.617"/>
<path fill="#404041" d="M1317.752,328.609c2.963,0.004,5.926,0,8.889-0.004c1.391,0.002,2.617,0.365,2.766,0.804
	c0.342,1.012,0.688,2.022,1.037,3.062c0.186,0.451-0.814,0.828-2.195,0.826c-3.07,0.002-6.098,0.004-9.133,0.006
	c-1.387-0.002-2.617-0.381-2.777-0.839c-0.309-1.034-0.555-2.038-0.826-3.052C1315.389,328.977,1316.395,328.614,1317.752,328.609"
	/>
<path fill="#404041" d="M1334.874,328.602c2.963,0.002,5.926,0,8.918-0.005c1.357,0.003,2.615,0.366,2.832,0.813
	c0.424,1.004,0.855,2.02,1.32,3.047c0.193,0.459-0.809,0.838-2.189,0.835c-3.066,0.003-6.096,0.009-9.129,0.003
	c-1.418,0.006-2.68-0.37-2.875-0.836c-0.398-1.026-0.723-2.039-1.084-3.045C1332.51,328.969,1333.485,328.606,1334.874,328.602"/>
<path fill="#404041" d="M1150.127,334.16c2.984,0.006,6.004,0.002,9.02,0c1.363,0.002,2.324,0.375,2.105,0.847
	c-0.492,1.048-1.021,2.106-1.49,3.181c-0.227,0.488-1.51,0.879-2.936,0.874c-3.09,0.005-6.182,0.012-9.236,0.007
	c-1.359,0.005-2.344-0.402-2.088-0.877c0.543-1.07,1.141-2.137,1.709-3.188C1147.456,334.535,1148.76,334.166,1150.127,334.16"/>
<path fill="#404041" d="M1167.42,334.158c2.986,0.004,5.967,0.002,8.988,0c1.396-0.006,2.389,0.377,2.209,0.841
	c-0.438,1.052-0.85,2.118-1.23,3.191c-0.184,0.481-1.465,0.877-2.895,0.876c-3.086,0.001-6.176,0.001-9.23-0.004
	c-1.363,0.005-2.379-0.395-2.164-0.878c0.453-1.071,0.971-2.132,1.445-3.185C1164.754,334.535,1166.028,334.154,1167.42,334.158"/>
<path fill="#404041" d="M1184.717,334.156c3.016,0.005,6.002,0.003,9.018,0c1.395,0.003,2.418,0.373,2.275,0.839
	c-0.35,1.056-0.67,2.116-0.963,3.189c-0.145,0.483-1.393,0.882-2.822,0.886c-3.09,0-6.143,0.002-9.23-0.003
	c-1.393,0.003-2.406-0.396-2.264-0.878c0.363-1.074,0.787-2.145,1.184-3.194C1182.077,334.533,1183.356,334.154,1184.717,334.156"/>
<path fill="#404041" d="M1202.075,334.154c2.977-0.004,5.994-0.005,9.012-0.008c1.395,0.003,2.414,0.388,2.313,0.85
	c-0.23,1.055-0.463,2.123-0.66,3.193c-0.078,0.482-1.324,0.887-2.758,0.883c-3.113,0.004-6.17,0.004-9.227-0.002
	c-1.424-0.003-2.473-0.402-2.338-0.885c0.309-1.069,0.582-2.133,0.881-3.186C1199.43,334.531,1200.672,334.159,1202.075,334.154"/>
<path fill="#404041" d="M1219.42,334.146c2.98,0.004,6,0.008,9.047,0.006c1.395-0.004,2.477,0.379,2.41,0.843
	c-0.176,1.058-0.283,2.12-0.395,3.198c-0.07,0.482-1.283,0.879-2.709,0.877c-3.117,0.002-6.207,0.004-9.26-0.004
	c-1.428,0.006-2.51-0.389-2.406-0.871c0.18-1.078,0.395-2.146,0.609-3.202C1216.815,334.531,1218.028,334.15,1219.42,334.146"/>
<path fill="#404041" d="M1236.799,334.15c3.016,0.004,6.027,0.002,9.074,0c1.395,0.002,2.51,0.373,2.482,0.843
	c-0.086,1.052-0.109,2.122-0.133,3.202c-0.029,0.482-1.207,0.875-2.635,0.879c-3.117,0-6.207,0.01-9.289,0.006
	c-1.43-0.002-2.506-0.405-2.449-0.89c0.096-1.077,0.191-2.142,0.314-3.197C1234.221,334.531,1235.401,334.148,1236.799,334.15"/>
<path fill="#404041" d="M1254.237,334.141c3.016,0.008,6.029,0.002,9.072,0c1.396,0.002,2.537,0.383,2.586,0.854
	c0.035,1.06,0.035,2.124,0.1,3.198c0.016,0.484-1.135,0.889-2.559,0.887c-3.121,0.002-6.201,0.002-9.285-0.004
	c-1.43-0.002-2.572-0.4-2.555-0.89c0.002-1.063,0.043-2.136,0.113-3.188C1251.696,334.521,1252.842,334.146,1254.237,334.141"/>
<path fill="#404041" d="M1271.67,334.141c3.014,0.003,6.063,0.002,9.107,0c1.389,0.002,2.566,0.383,2.652,0.854
	c0.119,1.055,0.244,2.127,0.367,3.203c0.053,0.484-1.063,0.883-2.488,0.881c-3.113,0-6.229,0.002-9.314-0.005
	c-1.424,0.005-2.607-0.391-2.629-0.881c-0.084-1.074-0.102-2.142-0.152-3.198C1269.192,334.527,1270.276,334.144,1271.67,334.141"/>
<path fill="#404041" d="M1289.165,334.146c3.049,0.004,6.092,0.002,9.135,0c1.396-0.008,2.637,0.375,2.73,0.836
	c0.174,1.063,0.387,2.133,0.631,3.215c0.098,0.486-0.986,0.885-2.445,0.889c-3.113,0.004-6.23-0.004-9.313-0.008
	c-1.428,0.004-2.639-0.398-2.697-0.885c-0.176-1.076-0.314-2.151-0.418-3.202C1286.723,334.519,1287.807,334.143,1289.165,334.146"
	/>
<path fill="#404041" d="M1306.723,334.136c3.012,0.005,6.063,0.003,9.131,0c1.396,0.003,2.635,0.383,2.766,0.855
	c0.297,1.056,0.598,2.132,0.896,3.202c0.139,0.486-0.914,0.887-2.301,0.891c-3.15,0-6.297,0.002-9.379-0.002
	c-1.428-0.004-2.705-0.4-2.813-0.887c-0.229-1.082-0.457-2.15-0.684-3.212C1304.245,334.516,1305.329,334.134,1306.723,334.136"/>
<path fill="#404041" d="M1324.241,334.134c3.043,0.005,6.09,0.002,9.164,0c1.395,0.002,2.666,0.382,2.836,0.854
	c0.385,1.059,0.777,2.129,1.199,3.207c0.176,0.488-0.838,0.887-2.262,0.885c-3.148,0.002-6.297,0.012-9.377,0.004
	c-1.428-0.002-2.738-0.404-2.885-0.894c-0.35-1.067-0.666-2.146-0.943-3.202C1321.829,334.523,1322.852,334.131,1324.241,334.134"/>
<path fill="#404041" d="M1156.444,339.932c3.066,0.01,6.166,0.008,9.271,0.002c1.396,0.008,2.395,0.41,2.184,0.899
	c-0.471,1.108-0.979,2.24-1.424,3.364c-0.213,0.511-1.592,0.935-2.99,0.934c-3.176,0-6.359,0-9.494,0
	c-1.436-0.006-2.428-0.426-2.18-0.936c0.529-1.131,1.08-2.254,1.656-3.362C1153.706,340.336,1155.038,339.938,1156.444,339.932"/>
<path fill="#404041" d="M1174.217,339.938c3.102-0.004,6.164,0.007,9.27,0.004c1.434-0.008,2.428,0.4,2.262,0.9
	c-0.377,1.108-0.76,2.234-1.115,3.365c-0.174,0.514-1.512,0.928-2.979,0.925c-3.18,0-6.32,0.009-9.492,0
	c-1.439,0.005-2.459-0.415-2.25-0.935c0.428-1.124,0.922-2.254,1.371-3.363C1171.483,340.342,1172.815,339.942,1174.217,339.938"/>
<path fill="#404041" d="M1192.02,339.943c3.064,0.004,6.164,0.004,9.268,0.002c1.432,0.006,2.494,0.4,2.369,0.893
	c-0.32,1.112-0.613,2.238-0.871,3.371c-0.131,0.515-1.4,0.933-2.865,0.934c-3.182,0.012-6.387,0.012-9.525,0.002
	c-1.438-0.003-2.49-0.424-2.322-0.941c0.332-1.125,0.693-2.251,1.057-3.363C1189.319,340.344,1190.583,339.941,1192.02,339.943"/>
<path fill="#404041" d="M1209.852,339.939c3.064,0.008,6.164,0.006,9.264,0.004c1.434,0.004,2.525,0.409,2.443,0.9
	c-0.229,1.111-0.428,2.241-0.592,3.369c-0.09,0.514-1.324,0.938-2.789,0.939c-3.176,0-6.354,0-9.488-0.008
	c-1.467-0.004-2.598-0.425-2.473-0.932c0.275-1.132,0.549-2.26,0.816-3.371C1207.151,340.348,1208.418,339.938,1209.852,339.939"/>
<path fill="#404041" d="M1227.713,339.945c3.063-0.002,6.16-0.002,9.293-0.004c1.434,0.002,2.564,0.408,2.518,0.908
	c-0.137,1.115-0.234,2.244-0.309,3.372c-0.012,0.519-1.248,0.939-2.713,0.938c-3.209,0-6.381,0-9.516-0.008
	c-1.473-0.003-2.604-0.419-2.557-0.935c0.148-1.135,0.328-2.263,0.537-3.377C1225.049,340.354,1226.28,339.951,1227.713,339.945"/>
<path fill="#404041" d="M1245.567,339.951c3.1,0.004,6.197,0.004,9.326,0.001c1.438-0.011,2.596,0.396,2.59,0.896
	c-0.006,1.118,0.018,2.249,0.043,3.379c-0.039,0.522-1.238,0.94-2.701,0.942c-3.209,0-6.383-0.007-9.557-0.01
	c-1.471,0.001-2.625-0.422-2.623-0.937c0.084-1.13,0.17-2.268,0.258-3.374C1242.938,340.351,1244.137,339.947,1245.567,339.951"/>
<path fill="#404041" d="M1263.489,339.95c3.129,0.005,6.227,0.004,9.355,0.001c1.434,0.004,2.625,0.404,2.697,0.898
	c0.082,1.115,0.137,2.248,0.252,3.383c0.039,0.52-1.123,0.943-2.584,0.94c-3.211,0-6.414,0-9.588-0.007
	c-1.465-0.003-2.664-0.426-2.668-0.941c-0.01-1.129-0.051-2.26-0.061-3.375C1260.893,340.352,1262.051,339.945,1263.489,339.95"/>
<path fill="#404041" d="M1281.467,339.954c3.1-0.003,6.195-0.003,9.355-0.003c1.434,0.003,2.693,0.412,2.771,0.91
	c0.174,1.111,0.355,2.246,0.533,3.387c0.082,0.516-1.041,0.934-2.51,0.932c-3.24,0-6.41,0-9.58,0
	c-1.504-0.005-2.732-0.418-2.748-0.939c-0.135-1.133-0.24-2.266-0.336-3.381C1278.874,340.363,1280.036,339.951,1281.467,339.954"/>
<path fill="#404041" d="M1299.446,339.951c3.127,0.008,6.258,0.012,9.42,0.003c1.398-0.003,2.693,0.407,2.813,0.907
	c0.271,1.12,0.541,2.256,0.816,3.389c0.123,0.519-0.967,0.938-2.43,0.934c-3.242,0-6.414,0.009-9.615,0.003
	c-1.467,0.001-2.734-0.423-2.82-0.938c-0.23-1.141-0.432-2.273-0.59-3.387C1296.954,340.361,1298.012,339.955,1299.446,339.951"/>
<path fill="#404041" d="M1317.45,339.957c3.129,0.007,6.291,0.005,9.453,0.003c1.426-0.005,2.727,0.406,2.885,0.899
	c0.363,1.122,0.732,2.258,1.102,3.395c0.166,0.518-0.893,0.938-2.352,0.941c-3.236,0.008-6.441,0.008-9.646,0
	c-1.463-0.002-2.766-0.43-2.896-0.943c-0.33-1.135-0.619-2.271-0.871-3.393C1314.991,340.359,1316.053,339.955,1317.45,339.957"/>
<path fill="#404041" d="M1335.583,339.955c5.654,0.002,11.346,0.007,17.039,0.009c1.457-0.004,2.836,0.415,3.063,0.918
	c0.494,1.114,1.023,2.239,1.557,3.362c0.201,0.533-0.832,0.963-2.365,0.956c-5.791,0.01-11.617,0.007-17.406,0
	c-1.535-0.003-2.91-0.438-3.09-0.961c-0.414-1.12-0.764-2.243-1.143-3.357C1333.069,340.379,1334.088,339.96,1335.583,339.955"/>
<path fill="#404041" d="M1135.059,346.038c3.152,0.007,6.275,0.007,9.469,0c1.477,0.003,2.428,0.424,2.16,0.946
	c-0.596,1.176-1.199,2.359-1.771,3.557c-0.273,0.54-1.695,0.983-3.209,0.985c-3.234,0.003-6.473,0.003-9.705-0.002
	c-1.475-0.008-2.486-0.454-2.178-0.993c0.66-1.193,1.344-2.377,2.051-3.554C1132.17,346.462,1133.583,346.033,1135.059,346.038"/>
<path fill="#404041" d="M1153.276,346.041c3.152,0.009,6.307,0.009,9.5,0.009c1.438,0.003,2.457,0.424,2.234,0.949
	c-0.498,1.175-1.004,2.364-1.471,3.552c-0.234,0.539-1.621,0.989-3.129,0.986c-3.273,0.006-6.508,0.006-9.736-0.001
	c-1.477-0.007-2.49-0.449-2.256-0.993c0.551-1.188,1.172-2.376,1.746-3.549C1150.424,346.469,1151.836,346.04,1153.276,346.041"/>
<path fill="#404041" d="M1171.52,346.049c3.189,0.007,6.342,0.016,9.533,0.016c1.477-0.007,2.496,0.415,2.316,0.941
	c-0.402,1.176-0.771,2.365-1.152,3.572c-0.217,0.532-1.563,0.975-3.074,0.972c-3.266,0.007-6.504,0.007-9.77-0.003
	c-1.479,0.003-2.523-0.447-2.342-0.986c0.457-1.194,0.979-2.387,1.459-3.561C1168.706,346.474,1170.079,346.053,1171.52,346.049"/>
<path fill="#404041" d="M1189.831,346.059c3.15,0.01,6.34,0.01,9.529,0.01c1.475-0.006,2.566,0.421,2.43,0.943
	c-0.307,1.18-0.613,2.369-0.889,3.576c-0.139,0.535-1.48,0.979-2.994,0.973c-3.266,0-6.535,0.01-9.766-0.002
	c-1.514,0.002-2.563-0.445-2.387-0.986c0.352-1.195,0.709-2.388,1.092-3.564C1187.018,346.48,1188.354,346.058,1189.831,346.059"/>
<path fill="#404041" d="M1208.133,346.066c3.189,0.008,6.344,0.008,9.566,0.008c1.469,0.002,2.631,0.424,2.506,0.941
	c-0.205,1.183-0.414,2.371-0.592,3.58c-0.1,0.535-1.404,0.988-2.912,0.984c-3.303-0.004-6.535,0.004-9.807-0.007
	c-1.475-0.002-2.594-0.45-2.461-0.993c0.252-1.2,0.576-2.395,0.865-3.568C1205.393,346.492,1206.694,346.068,1208.133,346.066"/>
<path fill="#404041" d="M1226.508,346.078h9.592c1.471,0.003,2.633,0.426,2.582,0.955c-0.105,1.178-0.217,2.373-0.326,3.582
	c-0.053,0.537-1.322,0.979-2.801,0.979c-3.297-0.002-6.563,0.004-9.824-0.006c-1.514-0.002-2.674-0.446-2.551-0.987
	c0.154-1.2,0.348-2.396,0.535-3.571C1223.762,346.5,1225.03,346.083,1226.508,346.078"/>
<path fill="#404041" d="M1244.905,346.09c3.182,0.01,6.4,0,9.621,0c1.48-0.004,2.672,0.421,2.67,0.947
	c-0.016,1.183-0.059,2.379-0.037,3.588c-0.004,0.539-1.236,0.983-2.748,0.986c-3.299,0-6.564-0.011-9.828-0.011
	c-1.508,0.002-2.703-0.446-2.664-0.99c0.059-1.204,0.184-2.397,0.273-3.577C1242.233,346.506,1243.463,346.088,1244.905,346.09"/>
<path fill="#404041" d="M1263.334,346.096c3.184,0.012,6.4,0.012,9.654,0c1.471,0.002,2.705,0.429,2.744,0.949
	c0.053,1.184,0.139,2.381,0.266,3.592c0.037,0.539-1.191,0.984-2.699,0.986c-3.301,0-6.564-0.002-9.828-0.002
	c-1.51-0.006-2.738-0.455-2.744-1.001c-0.047-1.204-0.014-2.397-0.023-3.579C1260.694,346.518,1261.893,346.093,1263.334,346.096"/>
<path fill="#404041" d="M1281.825,346.102c3.221,0.009,6.404,0.009,9.654,0.009c1.473-0.003,2.74,0.429,2.82,0.947
	c0.188,1.192,0.342,2.386,0.566,3.589c0.084,0.548-1.039,0.994-2.584,0.989c-3.297,0-6.602-0.002-9.896-0.002
	c-1.473-0.006-2.775-0.458-2.826-1.003c-0.143-1.196-0.217-2.396-0.318-3.577C1279.194,346.522,1280.352,346.106,1281.825,346.102"
	/>
<path fill="#404041" d="M1300.346,346.106c3.188,0.008,6.404,0.015,9.623,0.015c1.498-0.004,2.805,0.422,2.936,0.944
	c0.246,1.188,0.537,2.386,0.859,3.601c0.164,0.538-0.955,0.984-2.5,0.982c-3.297-0.006-6.631-0.006-9.893-0.012
	c-1.473,0.012-2.854-0.444-2.904-0.99c-0.248-1.202-0.455-2.401-0.658-3.588C1297.715,346.529,1298.875,346.111,1300.346,346.106"/>
<path fill="#404041" d="M1318.901,346.119c5.852,0.008,11.668,0.012,17.486,0.002c1.539,0.006,2.893,0.437,3.119,0.978
	c0.424,1.181,0.814,2.366,1.277,3.563c0.191,0.545-0.863,1.01-2.443,1.006c-5.961,0.006-11.92,0-17.924-0.01
	c-1.539-0.002-2.887-0.458-3.064-1.01c-0.342-1.195-0.645-2.371-0.939-3.562C1316.27,346.551,1317.428,346.117,1318.901,346.119"/>
<path fill="#404041" d="M1346.239,346.13c3.08,0.007,6.162,0.007,9.238,0.007c1.441-0.006,2.748,0.407,2.971,0.908
	c0.541,1.219,1.115,2.453,1.701,3.7c0.232,0.517-0.771,0.938-2.209,0.936c-3.154-0.002-6.309,0.005-9.467-0.005
	c-1.473-0.004-2.793-0.428-2.986-0.941c-0.508-1.24-0.971-2.474-1.432-3.689C1343.827,346.531,1344.872,346.127,1346.239,346.13"/>
<path fill="#404041" d="M1194.752,354.797c18.633,0.021,37.299,0.031,56,0.051c18.762,0.02,37.555,0.023,56.418,0.031
	c0.748,3.067,1.543,6.224,2.363,9.485c0.848,3.362,1.688,6.85,2.652,10.444c-20.775-0.026-41.52-0.054-62.146-0.095
	c-20.604-0.042-41.168-0.072-61.695-0.113c1.139-3.577,2.232-7.032,3.334-10.381
	C1192.747,360.988,1193.749,357.844,1194.752,354.797"/>
<path fill="#404041" d="M1121.663,102.766h262.09c8.789,0,15.979,7.189,15.979,15.981v176.856c0,8.789-7.188,15.982-15.979,15.982
	h-262.09c-8.789,0-15.982-7.193-15.982-15.982V118.747C1105.68,109.955,1112.874,102.766,1121.663,102.766"/>
<rect x="1121.663" y="118.747" fill="#839CA9" width="262.086" height="176.854"/>
<rect x="1121.663" y="118.747" fill="#FFFFFF" width="262.086" height="176.854"/>
<path fill="#404041" d="M1069.391,377.128h365.258c6.271,0,11.41,5.146,11.41,11.435c0,6.289-5.139,11.437-11.41,11.437h-365.258
	c-6.271,0-11.412-5.146-11.412-11.437C1057.979,382.274,1063.118,377.128,1069.391,377.128"/>
<path fill="#6D6E70" d="M1252.708,113.79c1.762,0,3.193-1.435,3.193-3.196c0-1.761-1.432-3.199-3.193-3.199
	c-1.76,0-3.197,1.438-3.197,3.199C1249.51,112.355,1250.948,113.79,1252.708,113.79"/>
<path fill="#58595B" d="M1057.979,388.277h388.08v-8.688c0-1.357-1.102-2.459-2.455-2.459h-383.172
	c-1.354,0-2.453,1.102-2.453,2.459V388.277z"/>
<path fill="#404041" d="M1252.708,112.365c0.977,0,1.771-0.794,1.771-1.772c0-0.976-0.795-1.772-1.771-1.772
	c-0.979,0-1.771,0.797-1.771,1.772C1250.936,111.571,1251.729,112.365,1252.708,112.365"/>
<polygon fill="#FFFFFF" points="1223.934,199.781 1209.75,191.593 1195.563,183.4 1195.563,199.781 1195.563,216.163 
	1209.75,207.971 "/>
<rect x="1132.622" y="136.763" fill="#D0D2D3" width="149.232" height="8.038"/>
<rect x="1283.364" y="136.763" fill="#A6A8AB" width="17.41" height="8.038"/>
<rect x="1302.725" y="136.763" fill="#A6A8AB" width="17.416" height="8.038"/>
<rect x="1322.096" y="136.763" fill="#A6A8AB" width="17.41" height="8.038"/>
<rect x="1341.458" y="136.763" fill="#A6A8AB" width="17.414" height="8.038"/>
<rect x="1360.823" y="136.763" fill="#A6A8AB" width="17.416" height="8.038"/>
<rect x="1133.487" y="163.604" fill="#47A4AD" width="114.043" height="73.876"/>
<rect x="1259.469" y="163.609" fill="#3C8376" width="37.73" height="39.614"/>
<rect x="1341.325" y="163.609" fill="#56C4CF" width="37.734" height="39.614"/>
<rect x="1259.469" y="249.864" fill="#4EA291" width="37.73" height="39.616"/>
<rect x="1300.399" y="249.864" fill="#47A4AD" width="37.73" height="39.616"/>
<rect x="1341.325" y="249.864" fill="#C96C38" width="37.734" height="39.616"/>
<path fill="#FFFFFF" d="M1209.106,194.162l-28.52-1.667c-0.232-0.73-1.678-5.594-1.926-5.89c-0.4-0.492-5.463-0.866-6.213-0.908
	c-0.748-0.043-0.561,1.17-0.377,1.215c1.229,0.165,4.014,0.35,5.23,0.532l5.666,17.602v6.967c-0.279,0.354-0.438,0.802-0.438,1.285
	c0,1.16,0.938,2.101,2.096,2.101s2.098-0.94,2.098-2.101c0-0.354-0.088-0.686-0.238-0.978h14.031
	c-0.152,0.292-0.244,0.623-0.244,0.978c0,1.16,0.941,2.101,2.1,2.101c1.162,0,2.102-0.94,2.102-2.101
	c0-0.719-0.369-1.356-0.916-1.733v-0.723h-19.01v-5.294h21.256L1209.106,194.162z M1181.081,193.923L1181.081,193.923l3.871,0.223
	v3.008h-2.861L1181.081,193.923z M1186.19,197.153L1186.19,197.153v-2.938l2.344,0.134v2.804H1186.19z M1189.61,197.153
	L1189.61,197.153v-2.741l2.313,0.133v2.608H1189.61z M1193.133,197.153L1193.133,197.153v-2.536l2.34,0.135v2.401H1193.133z
	 M1196.551,197.153L1196.551,197.153v-2.341l2.344,0.135v2.206H1196.551L1196.551,197.153z M1200.137,197.153L1200.137,197.153
	v-2.135l2.314,0.134v2.001H1200.137z M1203.557,197.153L1203.557,197.153v-1.937l3.516,0.199l-0.527,1.737L1203.557,197.153
	L1203.557,197.153z M1200.137,198.24L1200.137,198.24h2.314v2.18h-2.314V198.24z M1203.557,200.42L1203.557,200.42v-2.18h2.711
	l-0.668,2.18H1203.557z M1193.133,198.24L1193.133,198.24h2.34v2.18h-2.34V198.24z M1196.551,200.42L1196.551,200.42v-2.18h2.344
	v2.18H1196.551z M1200.137,201.527L1200.137,201.527h2.314v2.443h-2.314V201.527z M1203.557,203.971L1203.557,203.971v-2.443h1.777
	l-0.705,2.443H1203.557z M1189.61,198.24L1189.61,198.24h2.313v2.18h-2.313V198.24z M1193.133,201.527L1193.133,201.527h2.34v2.443
	h-2.34V201.527z M1196.551,203.971L1196.551,203.971v-2.443h2.344v2.443H1196.551z M1186.19,200.42L1186.19,200.42v-2.18h2.344v2.18
	H1186.19z M1186.19,201.527L1186.19,201.527h2.344v2.443h-2.344V201.527z M1189.61,203.971L1189.61,203.971v-2.443h2.313v2.443
	H1189.61z M1182.467,198.24L1182.467,198.24h2.484v2.18h-1.746L1182.467,198.24z M1183.571,201.527L1183.571,201.527h1.381v2.443
	h-0.67L1183.571,201.527z M1184.627,212.648L1184.627,212.648c0.359,0,0.652,0.291,0.652,0.649c0,0.36-0.293,0.651-0.652,0.651
	c-0.357,0-0.646-0.291-0.646-0.651C1183.979,212.939,1184.27,212.648,1184.627,212.648 M1202.372,212.648L1202.372,212.648
	c0.361,0,0.652,0.291,0.652,0.649c0,0.36-0.291,0.651-0.652,0.651c-0.359,0-0.646-0.291-0.646-0.651
	C1201.725,212.939,1202.012,212.648,1202.372,212.648"/>
<rect x="1134.586" y="242.852" fill="#929497" width="85.355" height="3.229"/>
<rect x="1134.483" y="249.668" fill="#929497" width="85.354" height="3.229"/>
<rect x="1134.411" y="255.943" fill="#929497" width="40.885" height="3.226"/>
<rect x="1134.444" y="262.396" fill="#929497" width="52.551" height="3.229"/>
<rect x="1134.518" y="268.85" fill="#929497" width="61.689" height="3.229"/>
<rect x="1134.553" y="275.305" fill="#929497" width="40.885" height="3.229"/>
<polygon fill="#E4E8EA" points="1108.465,118.756 1092.985,137.404 1092.985,144.02 1412.045,144.02 1413.86,137.99 
	1399.784,118.756 "/>
<path fill="#F37D34" d="M1118.311,137.989h-29.553v13.646c8.158,3.512,21.391,3.512,29.553,0V137.989z"/>
<path fill="#E4E4E4" d="M1147.854,137.989h-29.543v13.646c8.156,3.512,21.387,3.512,29.543,0V137.989z"/>
<path fill="#F37D34" d="M1177.418,137.989h-29.547v13.646c8.156,3.512,21.391,3.512,29.547,0V137.989z"/>
<path fill="#E4E4E4" d="M1206.963,137.989h-29.545v13.646c8.16,3.512,21.391,3.512,29.545,0V137.989z"/>
<path fill="#F37D34" d="M1236.532,137.989h-29.557v13.646c8.164,3.512,21.393,3.512,29.557,0V137.989z"/>
<path fill="#E4E4E4" d="M1266.077,137.989h-29.545v13.646c8.156,3.512,21.387,3.512,29.545,0V137.989z"/>
<path fill="#F37D34" d="M1295.631,137.989h-29.551v13.646c8.168,3.512,21.393,3.512,29.551,0V137.989z"/>
<path fill="#E4E4E4" d="M1325.19,137.989h-29.555v13.646c8.164,3.512,21.395,3.512,29.555,0V137.989z"/>
<path fill="#F37D34" d="M1354.745,137.989H1325.2v13.646c8.156,3.512,21.389,3.512,29.545,0V137.989z"/>
<path fill="#E4E4E4" d="M1384.295,137.989h-29.551v13.646c8.162,3.512,21.391,3.512,29.551,0V137.989z"/>
<path fill="#F37D34" d="M1413.86,137.989h-29.555v13.646c8.168,3.512,21.395,3.512,29.555,0V137.989z"/>
<path fill="#F9A23C" d="M1132.379,118.756h-26.736c-5.629,6.412-11.258,12.818-16.885,19.234h29.553
	C1122.997,131.574,1127.688,125.168,1132.379,118.756"/>
<path fill="#F1F2F2" d="M1159.114,118.756h-26.734c-4.691,6.412-9.383,12.818-14.068,19.234h29.553
	C1151.602,131.574,1155.358,125.168,1159.114,118.756"/>
<path fill="#F9A23C" d="M1185.862,118.756h-26.732c-3.762,6.412-7.51,12.818-11.258,19.234h29.547
	C1180.231,131.574,1183.045,125.168,1185.862,118.756"/>
<path fill="#F1F2F2" d="M1212.596,118.756h-26.732c-2.816,6.412-5.631,12.818-8.443,19.234h29.545
	C1208.844,131.574,1210.715,125.168,1212.596,118.756"/>
<path fill="#F9A23C" d="M1239.34,118.756h-26.742c-1.875,6.412-3.736,12.818-5.623,19.234h29.559
	C1237.461,131.574,1238.401,125.168,1239.34,118.756"/>
<path fill="#F1F2F2" d="M1266.077,118.756h-26.74c-0.936,6.412-1.875,12.818-2.805,19.234h29.545V118.756z"/>
<path fill="#F9A23C" d="M1292.823,118.756h-26.742v19.234h29.551C1294.706,131.574,1293.758,125.168,1292.823,118.756"/>
<path fill="#F1F2F2" d="M1319.559,118.756h-26.734c0.936,6.412,1.883,12.818,2.813,19.234h29.557
	C1323.307,131.574,1321.428,125.168,1319.559,118.756"/>
<path fill="#F9A23C" d="M1346.309,118.756h-26.736c1.877,6.412,3.75,12.818,5.629,19.234h29.545
	C1351.934,131.574,1349.118,125.168,1346.309,118.756"/>
<path fill="#F1F2F2" d="M1373.034,118.756h-26.725c2.813,6.412,5.627,12.818,8.439,19.234h29.547
	C1380.543,131.574,1376.79,125.168,1373.034,118.756"/>
<path fill="#F9A23C" d="M1399.784,118.756h-26.738c3.752,6.412,7.51,12.818,11.26,19.234h29.555
	C1409.167,131.574,1404.479,125.168,1399.784,118.756"/>
<rect x="-172.499" y="-231.121" fill="none" width="1937.675" height="1937.678"/>
<g>
	<path fill="#F1F2F3" d="M207.597,135.56c2.493-0.592,6.499-0.984,10.438-0.984c5.71,0,9.384,0.984,12.077,3.217
		c2.296,1.705,3.741,4.331,3.741,7.811c0,4.331-2.889,8.072-7.482,9.715v0.197c4.2,0.982,9.122,4.463,9.122,11.025
		c0,3.808-1.509,6.696-3.805,8.861c-3.021,2.823-8.01,4.136-15.229,4.136c-3.938,0-6.958-0.263-8.861-0.526L207.597,135.56
		L207.597,135.56z M213.307,153.675h5.186c5.972,0,9.518-3.216,9.518-7.482c0-5.12-3.873-7.221-9.648-7.221
		c-2.626,0-4.136,0.197-5.055,0.395L213.307,153.675L213.307,153.675z M213.307,174.812c1.181,0.195,2.756,0.262,4.792,0.262
		c5.907,0,11.354-2.164,11.354-8.6c0-5.972-5.185-8.531-11.419-8.531h-4.727V174.812L213.307,174.812z"/>
	<path fill="#F1F2F3" d="M248.886,134.904v26.254c0,9.848,4.398,14.048,10.306,14.048c6.498,0,10.765-4.331,10.765-14.048v-26.254
		h5.776v25.86c0,13.588-7.153,19.101-16.738,19.101c-9.058,0-15.883-5.119-15.883-18.904v-26.057H248.886z"/>
	<path fill="#F1F2F3" d="M284.925,172.185c2.561,1.642,6.236,2.889,10.175,2.889c5.841,0,9.254-3.02,9.254-7.549
		c0-4.067-2.362-6.497-8.335-8.729c-7.221-2.626-11.684-6.433-11.684-12.603c0-6.891,5.712-12.012,14.31-12.012
		c4.463,0,7.811,1.05,9.713,2.166l-1.575,4.66c-1.379-0.854-4.332-2.102-8.335-2.102c-6.039,0-8.337,3.611-8.337,6.631
		c0,4.135,2.69,6.17,8.796,8.533c7.482,2.953,11.224,6.499,11.224,12.996c0,6.826-4.989,12.799-15.426,12.799
		c-4.266,0-8.927-1.313-11.289-2.889L284.925,172.185z"/>
	<path fill="#F1F2F3" d="M323.722,134.904v44.24h-5.777v-44.24H323.722z"/>
	<path fill="#F1F2F3" d="M333.701,179.144v-44.24h6.301l14.111,22.381c3.218,5.187,5.844,9.781,7.876,14.375l0.198-0.064
		c-0.525-5.908-0.657-11.29-0.657-18.115v-18.576h5.383v44.24h-5.776l-14.046-22.45c-3.084-4.923-6.039-9.976-8.206-14.767
		l-0.196,0.064c0.328,5.58,0.394,10.896,0.394,18.248v18.904H333.701z"/>
	<path fill="#F1F2F3" d="M399.737,158.402h-17.132v15.95h19.167v4.792H376.83v-44.24h23.957v4.791h-18.181v13.98h17.132
		L399.737,158.402L399.737,158.402z"/>
	<path fill="#F1F2F3" d="M408.471,172.185c2.56,1.642,6.236,2.889,10.174,2.889c5.841,0,9.254-3.02,9.254-7.549
		c0-4.067-2.362-6.497-8.336-8.729c-7.222-2.626-11.683-6.433-11.683-12.603c0-6.891,5.709-12.012,14.31-12.012
		c4.462,0,7.812,1.05,9.715,2.166l-1.577,4.66c-1.377-0.854-4.331-2.102-8.336-2.102c-6.039,0-8.334,3.611-8.334,6.631
		c0,4.135,2.69,6.17,8.794,8.533c7.481,2.953,11.225,6.499,11.225,12.996c0,6.826-4.987,12.799-15.424,12.799
		c-4.267,0-8.926-1.313-11.29-2.889L408.471,172.185z"/>
	<path fill="#F1F2F3" d="M440.833,172.185c2.559,1.642,6.236,2.889,10.173,2.889c5.843,0,9.256-3.02,9.256-7.549
		c0-4.067-2.361-6.497-8.336-8.729c-7.222-2.626-11.685-6.433-11.685-12.603c0-6.891,5.709-12.012,14.309-12.012
		c4.462,0,7.813,1.05,9.714,2.166l-1.573,4.66c-1.38-0.854-4.332-2.102-8.338-2.102c-6.037,0-8.335,3.611-8.335,6.631
		c0,4.135,2.69,6.17,8.797,8.533c7.481,2.953,11.225,6.499,11.225,12.996c0,6.826-4.99,12.799-15.426,12.799
		c-4.267,0-8.929-1.313-11.29-2.889L440.833,172.185z"/>
	<path fill="#F1F2F3" d="M487.835,135.56c2.494-0.592,6.497-0.984,10.435-0.984c5.714,0,9.39,0.984,12.078,3.217
		c2.298,1.705,3.742,4.331,3.742,7.811c0,4.331-2.888,8.072-7.48,9.715v0.197c4.2,0.982,9.125,4.463,9.125,11.025
		c0,3.808-1.512,6.696-3.81,8.861c-3.019,2.823-8.007,4.136-15.228,4.136c-3.938,0-6.956-0.263-8.86-0.526V135.56H487.835z
		 M493.544,153.675h5.188c5.975,0,9.517-3.216,9.517-7.482c0-5.12-3.872-7.221-9.648-7.221c-2.625,0-4.135,0.197-5.054,0.395
		L493.544,153.675L493.544,153.675z M493.544,174.812c1.184,0.195,2.757,0.262,4.792,0.262c5.908,0,11.356-2.164,11.356-8.6
		c0-5.972-5.188-8.531-11.424-8.531h-4.725V174.812L493.544,174.812z"/>
	<path fill="#F1F2F3" d="M529.649,165.228l-4.595,13.916h-5.909l15.031-44.24h6.895l15.097,44.24h-6.104l-4.727-13.916H529.649z
		 M544.155,160.764l-4.396-12.732c-0.921-2.888-1.577-5.515-2.232-8.075h-0.197c-0.591,2.561-1.314,5.318-2.167,8.009l-4.331,12.799
		L544.155,160.764L544.155,160.764z"/>
	<path fill="#F1F2F3" d="M562.67,179.144v-44.24h6.301l14.115,22.381c3.213,5.187,5.84,9.781,7.875,14.375l0.197-0.064
		c-0.526-5.908-0.657-11.29-0.657-18.115v-18.576h5.382v44.24h-5.774l-14.049-22.45c-3.084-4.923-6.036-9.976-8.202-14.767
		l-0.198,0.064c0.328,5.58,0.393,10.896,0.393,18.248v18.904H562.67z"/>
	<path fill="#F1F2F3" d="M605.865,179.144v-44.24h6.301l14.112,22.381c3.215,5.187,5.843,9.781,7.877,14.375l0.197-0.064
		c-0.524-5.908-0.657-11.29-0.657-18.115v-18.576h5.382v44.24h-5.776l-14.045-22.45c-3.085-4.923-6.04-9.976-8.205-14.767
		l-0.196,0.064c0.327,5.58,0.394,10.896,0.394,18.248v18.904H605.865z"/>
	<path fill="#F1F2F3" d="M671.9,158.402h-17.136v15.95h19.169v4.792h-24.944v-44.24h23.961v4.791h-18.186v13.98H671.9V158.402z"/>
	<path fill="#F1F2F3" d="M681.354,135.56c2.888-0.592,7.092-0.984,10.964-0.984c6.104,0,10.104,1.182,12.862,3.676
		c2.164,1.902,3.479,4.922,3.479,8.402c0,5.775-3.74,9.646-8.334,11.223v0.197c3.347,1.183,5.381,4.332,6.496,8.926
		c1.443,6.172,2.496,10.438,3.35,12.145h-5.908c-0.723-1.246-1.705-5.057-2.889-10.568c-1.313-6.104-3.739-8.402-8.926-8.598h-5.383
		v19.166h-5.713L681.354,135.56L681.354,135.56z M687.066,155.646h5.842c6.103,0,9.976-3.35,9.976-8.403
		c0-5.71-4.137-8.204-10.174-8.204c-2.756,0-4.66,0.264-5.644,0.525V155.646z"/>
</g>
<g>
	<g>
		<g>
			<defs>
				<rect id="SVGID_1_" x="-165.916" y="-231.121" width="1937.676" height="1937.677"/>
			</defs>
			<clipPath id="SVGID_2_">
				<use xlink:href="#SVGID_1_"  overflow="visible"/>
			</clipPath>
			<rect x="1266.942" y="207.97" clip-path="url(#SVGID_2_)" fill="#929497" width="34.68" height="3.229"/>
		</g>
	</g>
	<g>
		<g>
			<defs>
				<rect id="SVGID_3_" x="-165.916" y="-231.121" width="1937.676" height="1937.677"/>
			</defs>
			<clipPath id="SVGID_4_">
				<use xlink:href="#SVGID_3_"  overflow="visible"/>
			</clipPath>
			<rect x="1266.897" y="214.783" clip-path="url(#SVGID_4_)" fill="#929497" width="34.725" height="3.229"/>
		</g>
	</g>
	<g>
		<g>
			<defs>
				<rect id="SVGID_5_" x="-165.916" y="-231.121" width="1937.676" height="1937.677"/>
			</defs>
			<clipPath id="SVGID_6_">
				<use xlink:href="#SVGID_5_"  overflow="visible"/>
			</clipPath>
			<rect x="1266.87" y="221.058" clip-path="url(#SVGID_6_)" fill="#929497" width="34.752" height="3.229"/>
		</g>
	</g>
	<g>
		<g>
			<defs>
				<rect id="SVGID_7_" x="-165.916" y="-231.121" width="1937.676" height="1937.677"/>
			</defs>
			<clipPath id="SVGID_8_">
				<use xlink:href="#SVGID_7_"  overflow="visible"/>
			</clipPath>
			<rect x="1266.883" y="227.512" clip-path="url(#SVGID_8_)" fill="#929497" width="21.377" height="3.227"/>
		</g>
	</g>
	<g>
		<g>
			<defs>
				<rect id="SVGID_9_" x="-165.916" y="-231.121" width="1937.676" height="1937.677"/>
			</defs>
			<clipPath id="SVGID_10_">
				<use xlink:href="#SVGID_9_"  overflow="visible"/>
			</clipPath>
			<rect x="1266.917" y="233.966" clip-path="url(#SVGID_10_)" fill="#929497" width="25.1" height="3.228"/>
		</g>
	</g>
	<g>
		<g>
			<defs>
				<rect id="SVGID_11_" x="-165.916" y="-231.121" width="1937.676" height="1937.677"/>
			</defs>
			<clipPath id="SVGID_12_">
				<use xlink:href="#SVGID_11_"  overflow="visible"/>
			</clipPath>
			<rect x="1266.928" y="240.42" clip-path="url(#SVGID_12_)" fill="#929497" width="16.637" height="3.229"/>
		</g>
	</g>
	<g>
		<g>
			<defs>
				<rect id="SVGID_13_" x="-165.916" y="-231.121" width="1937.676" height="1937.677"/>
			</defs>
			<clipPath id="SVGID_14_">
				<use xlink:href="#SVGID_13_"  overflow="visible"/>
			</clipPath>
			<rect x="1306.985" y="163.609" clip-path="url(#SVGID_14_)" fill="#F48366" width="37.729" height="39.615"/>
		</g>
	</g>
	<g>
		<g>
			<defs>
				<rect id="SVGID_15_" x="-165.916" y="-231.121" width="1937.676" height="1937.677"/>
			</defs>
			<clipPath id="SVGID_16_">
				<use xlink:href="#SVGID_15_"  overflow="visible"/>
			</clipPath>
			<rect x="1307.059" y="207.316" clip-path="url(#SVGID_16_)" fill="#929497" width="37.66" height="3.229"/>
		</g>
	</g>
	<g>
		<g>
			<defs>
				<rect id="SVGID_17_" x="-165.916" y="-231.121" width="1937.676" height="1937.677"/>
			</defs>
			<clipPath id="SVGID_18_">
				<use xlink:href="#SVGID_17_"  overflow="visible"/>
			</clipPath>
			<rect x="1307.012" y="214.128" clip-path="url(#SVGID_18_)" fill="#929497" width="37.701" height="3.229"/>
		</g>
	</g>
	<g>
		<g>
			<defs>
				<rect id="SVGID_19_" x="-165.916" y="-231.121" width="1937.676" height="1937.677"/>
			</defs>
			<clipPath id="SVGID_20_">
				<use xlink:href="#SVGID_19_"  overflow="visible"/>
			</clipPath>
			<rect x="1306.985" y="220.404" clip-path="url(#SVGID_20_)" fill="#929497" width="37.729" height="3.229"/>
		</g>
	</g>
	<g>
		<g>
			<defs>
				<rect id="SVGID_21_" x="-165.916" y="-231.121" width="1937.676" height="1937.677"/>
			</defs>
			<clipPath id="SVGID_22_">
				<use xlink:href="#SVGID_21_"  overflow="visible"/>
			</clipPath>
			<rect x="1306.999" y="226.857" clip-path="url(#SVGID_22_)" fill="#929497" width="23.213" height="3.229"/>
		</g>
	</g>
	<g>
		<g>
			<defs>
				<rect id="SVGID_23_" x="-165.916" y="-231.121" width="1937.676" height="1937.677"/>
			</defs>
			<clipPath id="SVGID_24_">
				<use xlink:href="#SVGID_23_"  overflow="visible"/>
			</clipPath>
			<rect x="1307.032" y="233.313" clip-path="url(#SVGID_24_)" fill="#929497" width="27.252" height="3.229"/>
		</g>
	</g>
	<g>
		<g>
			<defs>
				<rect id="SVGID_25_" x="-165.916" y="-231.121" width="1937.676" height="1937.677"/>
			</defs>
			<clipPath id="SVGID_26_">
				<use xlink:href="#SVGID_25_"  overflow="visible"/>
			</clipPath>
			<rect x="1307.045" y="239.768" clip-path="url(#SVGID_26_)" fill="#929497" width="18.063" height="3.229"/>
		</g>
	</g>
	<g>
		<g>
			<defs>
				<rect id="SVGID_27_" x="-165.916" y="-231.121" width="1937.676" height="1937.677"/>
			</defs>
			<clipPath id="SVGID_28_">
				<use xlink:href="#SVGID_27_"  overflow="visible"/>
			</clipPath>
			<rect x="1347.993" y="207.578" clip-path="url(#SVGID_28_)" fill="#929497" width="37.654" height="3.226"/>
		</g>
	</g>
	<g>
		<g>
			<defs>
				<rect id="SVGID_29_" x="-165.916" y="-231.121" width="1937.676" height="1937.677"/>
			</defs>
			<clipPath id="SVGID_30_">
				<use xlink:href="#SVGID_29_"  overflow="visible"/>
			</clipPath>
			<rect x="1347.942" y="214.388" clip-path="url(#SVGID_30_)" fill="#929497" width="37.701" height="3.229"/>
		</g>
	</g>
	<g>
		<g>
			<defs>
				<rect id="SVGID_31_" x="-165.916" y="-231.121" width="1937.676" height="1937.677"/>
			</defs>
			<clipPath id="SVGID_32_">
				<use xlink:href="#SVGID_31_"  overflow="visible"/>
			</clipPath>
			<rect x="1347.911" y="220.664" clip-path="url(#SVGID_32_)" fill="#929497" width="37.732" height="3.229"/>
		</g>
	</g>
	<g>
		<g>
			<defs>
				<rect id="SVGID_33_" x="-165.916" y="-231.121" width="1937.676" height="1937.677"/>
			</defs>
			<clipPath id="SVGID_34_">
				<use xlink:href="#SVGID_33_"  overflow="visible"/>
			</clipPath>
			<rect x="1347.924" y="227.119" clip-path="url(#SVGID_34_)" fill="#929497" width="23.217" height="3.227"/>
		</g>
	</g>
	<g>
		<g>
			<defs>
				<rect id="SVGID_35_" x="-165.916" y="-231.121" width="1937.676" height="1937.677"/>
			</defs>
			<clipPath id="SVGID_36_">
				<use xlink:href="#SVGID_35_"  overflow="visible"/>
			</clipPath>
			<rect x="1347.961" y="233.572" clip-path="url(#SVGID_36_)" fill="#929497" width="27.252" height="3.228"/>
		</g>
	</g>
	<g>
		<g>
			<defs>
				<rect id="SVGID_37_" x="-165.916" y="-231.121" width="1937.676" height="1937.677"/>
			</defs>
			<clipPath id="SVGID_38_">
				<use xlink:href="#SVGID_37_"  overflow="visible"/>
			</clipPath>
			<rect x="1347.975" y="240.021" clip-path="url(#SVGID_38_)" fill="#929497" width="18.063" height="3.229"/>
		</g>
	</g>
	<g>
		<g>
			<defs>
				<rect id="SVGID_39_" x="-165.916" y="-231.121" width="1937.676" height="1937.677"/>
			</defs>
			<clipPath id="SVGID_40_">
				<use xlink:href="#SVGID_39_"  overflow="visible"/>
			</clipPath>
			<polygon clip-path="url(#SVGID_40_)" fill="#096164" points="1513.909,184.196 1525.782,181.876 1525.793,194.436 
				1513.668,197.96 			"/>
		</g>
	</g>
	<g>
		<g>
			<defs>
				<rect id="SVGID_41_" x="-165.916" y="-231.121" width="1937.676" height="1937.677"/>
			</defs>
			<clipPath id="SVGID_42_">
				<use xlink:href="#SVGID_41_"  overflow="visible"/>
			</clipPath>
			<polygon clip-path="url(#SVGID_42_)" fill="#096164" points="1428.124,318.86 1430.575,190.559 1433.737,190.273 
				1457.817,192.498 1458.139,193.142 1443.118,310.789 1443.045,311.146 1428.219,318.958 			"/>
		</g>
	</g>
	<g>
		<g>
			<defs>
				<rect id="SVGID_43_" x="-165.916" y="-231.121" width="1937.676" height="1937.677"/>
			</defs>
			<clipPath id="SVGID_44_">
				<use xlink:href="#SVGID_43_"  overflow="visible"/>
			</clipPath>
			<polygon clip-path="url(#SVGID_44_)" fill="#57C4CA" points="1539.877,332.134 1449.426,340.984 1447.616,198.591 
				1448.678,198.003 1542.018,187.767 1542.329,187.777 			"/>
		</g>
	</g>
	<g>
		<g>
			<defs>
				<rect id="SVGID_45_" x="-165.916" y="-231.121" width="1937.676" height="1937.677"/>
			</defs>
			<clipPath id="SVGID_46_">
				<use xlink:href="#SVGID_45_"  overflow="visible"/>
			</clipPath>
			<polygon clip-path="url(#SVGID_46_)" fill="#008D91" points="1449.426,340.983 1428.124,318.859 1442.793,310.96 
				1447.297,308.539 			"/>
		</g>
	</g>
	<g>
		<g>
			<defs>
				<rect id="SVGID_47_" x="-165.916" y="-231.121" width="1937.676" height="1937.677"/>
			</defs>
			<clipPath id="SVGID_48_">
				<use xlink:href="#SVGID_47_"  overflow="visible"/>
			</clipPath>
			<polygon clip-path="url(#SVGID_48_)" fill="#009BA0" points="1442.77,310.974 1449.426,340.984 1447.616,198.591 			"/>
		</g>
	</g>
	<g>
		<g>
			<defs>
				<rect id="SVGID_49_" x="-165.916" y="-231.121" width="1937.676" height="1937.677"/>
			</defs>
			<clipPath id="SVGID_50_">
				<use xlink:href="#SVGID_49_"  overflow="visible"/>
			</clipPath>
			<polygon clip-path="url(#SVGID_50_)" fill="#00494B" points="1542.329,187.777 1457.553,197.458 1457.528,193.105 
				1430.575,190.559 1525.782,181.876 1513.983,186.958 			"/>
		</g>
	</g>
	<g>
		<g>
			<defs>
				<rect id="SVGID_51_" x="-165.916" y="-231.121" width="1937.676" height="1937.677"/>
			</defs>
			<clipPath id="SVGID_52_">
				<use xlink:href="#SVGID_51_"  overflow="visible"/>
			</clipPath>
			<polygon clip-path="url(#SVGID_52_)" fill="#0D696C" points="1457.528,193.101 1448.678,198.002 1447.618,198.591 
				1457.553,197.457 1457.549,197.032 			"/>
		</g>
	</g>
	<g>
		<g>
			<defs>
				<rect id="SVGID_53_" x="-165.916" y="-231.121" width="1937.676" height="1937.677"/>
			</defs>
			<clipPath id="SVGID_54_">
				<use xlink:href="#SVGID_53_"  overflow="visible"/>
			</clipPath>
			<polygon clip-path="url(#SVGID_54_)" fill="#0D696C" points="1513.983,186.958 1514.143,190.997 1542.325,187.775 			"/>
		</g>
	</g>
	<g>
		<g>
			<defs>
				<rect id="SVGID_55_" x="-165.916" y="-231.121" width="1937.676" height="1937.677"/>
			</defs>
			<clipPath id="SVGID_56_">
				<use xlink:href="#SVGID_55_"  overflow="visible"/>
			</clipPath>
			<path clip-path="url(#SVGID_56_)" fill="#A6A8AB" d="M1514.6,205.454c1.582,0,2.881-1.293,2.881-2.878
				c0-1.583-1.299-2.877-2.881-2.877c-1.584,0-2.873,1.294-2.873,2.877C1511.727,204.161,1513.016,205.454,1514.6,205.454"/>
		</g>
	</g>
	<g>
		<g>
			<defs>
				<rect id="SVGID_57_" x="-165.916" y="-231.121" width="1937.676" height="1937.677"/>
			</defs>
			<clipPath id="SVGID_58_">
				<use xlink:href="#SVGID_57_"  overflow="visible"/>
			</clipPath>
			<path clip-path="url(#SVGID_58_)" fill="#404041" d="M1514.6,204.846c1.252,0,2.268-1.021,2.268-2.269
				c0-1.251-1.016-2.271-2.268-2.271s-2.268,1.02-2.268,2.271C1512.333,203.826,1513.348,204.846,1514.6,204.846"/>
		</g>
	</g>
	<g>
		<g>
			<defs>
				<rect id="SVGID_59_" x="-165.916" y="-231.121" width="1937.676" height="1937.677"/>
			</defs>
			<clipPath id="SVGID_60_">
				<use xlink:href="#SVGID_59_"  overflow="visible"/>
			</clipPath>
			<path clip-path="url(#SVGID_60_)" fill="#A6A8AB" d="M1480.483,210.753c1.586,0,2.875-1.293,2.875-2.876
				c0-1.585-1.289-2.878-2.875-2.878c-1.578,0-2.875,1.293-2.875,2.878C1477.608,209.46,1478.905,210.753,1480.483,210.753"/>
		</g>
	</g>
	<g>
		<g>
			<defs>
				<rect id="SVGID_61_" x="-165.916" y="-231.121" width="1937.676" height="1937.677"/>
			</defs>
			<clipPath id="SVGID_62_">
				<use xlink:href="#SVGID_61_"  overflow="visible"/>
			</clipPath>
			<path clip-path="url(#SVGID_62_)" fill="#404041" d="M1480.483,210.143c1.252,0,2.271-1.014,2.271-2.267
				c0-1.25-1.02-2.272-2.271-2.272c-1.248,0-2.27,1.022-2.27,2.272C1478.215,209.129,1479.235,210.143,1480.483,210.143"/>
		</g>
	</g>
	<g>
		<g>
			<defs>
				<rect id="SVGID_63_" x="-165.916" y="-231.121" width="1937.676" height="1937.677"/>
			</defs>
			<clipPath id="SVGID_64_">
				<use xlink:href="#SVGID_63_"  overflow="visible"/>
			</clipPath>
			<path clip-path="url(#SVGID_64_)" fill="#DDF0F2" d="M1496.301,263.458c-7.502,0-13.145-2.083-16.797-6.214
				c-8.383-9.484-4.873-27.434-2.059-41.855c0.549-2.785,1.066-4.912,1.443-7.151c0.043-0.246,0.189-0.464,0.393-0.604
				c0.205-0.142,0.465-0.19,0.705-0.14l0.658,0.14c0.322,0.07,0.541,0.386,0.482,0.718c-0.395,2.395-0.967,4.5-1.541,7.453
				c-2.725,13.951-6.117,31.313,1.557,39.995c3.674,4.144,9.773,5.951,18.135,5.363c6.822-0.479,11.686-2.696,14.857-6.79
				c7.26-9.357,4.049-26.947,1.469-41.083c-0.758-4.119-1.195-6.655-1.639-9.868c-0.049-0.361,0.182-0.699,0.529-0.797l0.799-0.216
				c0.174-0.048,0.361-0.021,0.518,0.079c0.145,0.097,0.248,0.255,0.277,0.434c0.5,3.15,0.924,5.928,1.66,9.98
				c2.66,14.559,5.965,32.682-1.891,42.811c-3.527,4.545-9.055,7.11-16.432,7.633
				C1498.348,263.421,1497.307,263.458,1496.301,263.458"/>
		</g>
	</g>
	<g>
		<g>
			<defs>
				<rect id="SVGID_65_" x="-165.916" y="-231.121" width="1937.676" height="1937.677"/>
			</defs>
			<clipPath id="SVGID_66_">
				<use xlink:href="#SVGID_65_"  overflow="visible"/>
			</clipPath>
			<path clip-path="url(#SVGID_66_)" fill="#424142" d="M1031.307,333.824c-0.141-0.006-0.281-0.012-0.414-0.025l-0.047-0.006
				c-0.756-0.062-1.484-0.209-2.18-0.428l-0.047-0.021l-0.049-0.012l-0.088-0.028l0,0l-0.09-0.027l-0.063-0.025l-0.025-0.01
				l-0.086-0.032l-0.086-0.027l-0.031-0.014l-0.057-0.021l-0.086-0.037l-0.086-0.038c-1.049-0.432-2.01-1.038-2.844-1.789h-0.004
				l-0.008-0.007l-0.063-0.062l-0.064-0.063l-0.039-0.033l-0.029-0.026l-0.064-0.063l-0.064-0.064l-0.063-0.063l-0.066-0.068
				l-0.01-0.002l-0.053-0.063l-0.064-0.063l-0.061-0.068c-1.441-1.552-2.396-3.557-2.625-5.773l-0.016-0.107l-0.006-0.105
				l-0.012-0.104l-0.004-0.105v-0.023l-0.006-0.081l-0.006-0.104l-0.004-0.069v-0.043l-0.008-0.105l-0.002-0.104l-0.781-113.864
				c-0.021-2.863,1.172-5.459,3.098-7.297l0.1-0.092l0.102-0.098l0.104-0.09v-0.005l0.105-0.089l0.082-0.07l0.021-0.02l0.105-0.085
				l0.061-0.046c0.123-0.1,0.25-0.195,0.375-0.291l0.334-0.228l0.066-0.043l0.018-0.015l0.172-0.105l0.018-0.012l0.072-0.037
				l0.082-0.055l0.057-0.031l0.033-0.02l0.084-0.049l0.094-0.051l0.088-0.049l0.09-0.045l0.031-0.02l0.055-0.032l0.277-0.132
				l0.088-0.043l0.02-0.011l0.008-0.002l0.346-0.147l0.094-0.043c0.15-0.063,0.307-0.115,0.457-0.169l0.021-0.01
				c0.836-0.286,1.725-0.47,2.65-0.523h0.018c0.166-0.006,0.338-0.015,0.516-0.014l57.576-0.399l0.064-0.003h0.068h0.07h0.057
				l0.016,0.003l0.061,0.002h0.068l0.066,0.005h0.066l0.064,0.007h0.064c5.207,0.303,9.365,4.621,9.408,9.912l0.791,113.867
				c0.037,5.518-4.42,10.031-9.936,10.074l-51.543,0.348v0.006l-6.031,0.039h-0.162h-0.053h-0.049l-0.008-0.004h-0.047h-0.055
				l-0.049-0.002L1031.307,333.824z M1024.688,202.146L1024.688,202.146l0.375-0.291l-0.314,0.243l-0.01,0.005L1024.688,202.146z"/>
		</g>
	</g>
	<g>
		<g>
			<defs>
				<rect id="SVGID_67_" x="-165.916" y="-231.121" width="1937.676" height="1937.677"/>
			</defs>
			<clipPath id="SVGID_68_">
				<use xlink:href="#SVGID_67_"  overflow="visible"/>
			</clipPath>
			<path clip-path="url(#SVGID_68_)" fill="#595B5D" d="M1059.877,323.802l0.006-0.008l0.047,0.023l0.822,0.813v-0.354l0.068-0.062
				l0.439-0.006l0.064,0.065l0.002,0.613l0.014,0.301l-0.004,0.019l0.027,0.03l0.848,0.833l-0.053,0.118l-0.463,0.007l0.014,1.428
				l-0.064,0.074l-3.471,0.022l-0.07-0.066l-0.01-1.433h-0.465l-0.051-0.112c0.75-0.764,1.506-1.526,2.25-2.292L1059.877,323.802z
				 M1059.881,323.371L1059.881,323.371l-0.082,0.026l-0.264,0.138l-1.127,1.144l-1.125,1.137l-0.098,0.527l0.439,0.298h0.055
				l0.012,1.025l0.486,0.463l1.406-0.002h0.652l1.4-0.012l0.469-0.486l0.004-1.022l0.051,0.009l0.445-0.305l-0.111-0.525
				l-0.76-0.741l0.004-0.155l-0.004-0.611l-0.486-0.477l-0.443,0.007l-0.232,0.065l-0.355-0.344l-0.24-0.137l-0.035-0.008
				l-0.012,0.005L1059.881,323.371z"/>
		</g>
	</g>
	<g>
		<g>
			<defs>
				<rect id="SVGID_69_" x="-165.916" y="-231.121" width="1937.676" height="1937.677"/>
			</defs>
			<clipPath id="SVGID_70_">
				<use xlink:href="#SVGID_69_"  overflow="visible"/>
			</clipPath>
			<path clip-path="url(#SVGID_70_)" fill="#595B5D" d="M1075.848,324.909c0,0.883-0.711,1.599-1.582,1.609
				c-0.883,0.003-1.605-0.7-1.605-1.584c-0.008-0.882,0.695-1.597,1.58-1.604C1075.114,323.328,1075.836,324.033,1075.848,324.909
				 M1074.245,326L1074.245,326l1.068-1.083l-1.082-1.058l-1.063,1.07L1074.245,326z M1076.877,326.849L1076.877,326.849
				l-0.955-0.947l-0.221,0.174l-0.197,0.199l-0.234,0.285l0.953,0.948l0.463-0.004l0.191-0.198V326.849L1076.877,326.849z"/>
		</g>
	</g>
	<g>
		<g>
			<defs>
				<rect id="SVGID_71_" x="-165.916" y="-231.121" width="1937.676" height="1937.677"/>
			</defs>
			<clipPath id="SVGID_72_">
				<use xlink:href="#SVGID_71_"  overflow="visible"/>
			</clipPath>
			<path clip-path="url(#SVGID_72_)" fill="#595B5D" d="M1045.801,323.853h-0.016l-0.803-0.165l-0.008-0.003l-0.133,0.006
				l-0.094,0.014l-0.018-0.006l-0.969,0.379l-0.205-0.294l-0.059-0.019l-0.031,0.034l-0.123,0.694l-0.09,0.491l0.014,0.05
				l0.037,0.012l0.006-0.005l0.545-0.022l0.623-0.045l0.039-0.03l-0.006-0.06l-0.262-0.24l0.537-0.199l-0.002,0.007l0.189-0.015
				c0.727,0.008,1.318,0.6,1.318,1.326c0,0.738-0.602,1.332-1.338,1.325c-0.723-0.005-1.313-0.6-1.313-1.331l0.012-0.182
				l-0.711-0.27l-0.037,0.43c-0.002,1.141,0.908,2.078,2.051,2.08c1.146,0.008,2.068-0.923,2.08-2.063
				C1047.047,324.9,1046.522,324.179,1045.801,323.853"/>
		</g>
	</g>
	<g>
		<g>
			<defs>
				<rect id="SVGID_73_" x="-165.916" y="-231.121" width="1937.676" height="1937.677"/>
			</defs>
			<clipPath id="SVGID_74_">
				<use xlink:href="#SVGID_73_"  overflow="visible"/>
			</clipPath>
			<polygon clip-path="url(#SVGID_74_)" fill="#424445" points="1071.514,209.357 1070.807,210.062 1048.61,210.22 
				1047.879,209.519 1048.598,208.812 1070.788,208.66 			"/>
		</g>
	</g>
	<g>
		<g>
			<defs>
				<rect id="SVGID_75_" x="-165.916" y="-231.121" width="1937.676" height="1937.677"/>
			</defs>
			<clipPath id="SVGID_76_">
				<use xlink:href="#SVGID_75_"  overflow="visible"/>
			</clipPath>
			<path clip-path="url(#SVGID_76_)" fill="#424445" d="M1077.924,209.396c0,0.904-0.719,1.629-1.615,1.641
				c-0.902,0.004-1.641-0.722-1.656-1.619c0.002-0.898,0.732-1.635,1.635-1.643C1077.186,207.766,1077.918,208.493,1077.924,209.396
				"/>
		</g>
	</g>
	<g>
		<g>
			<defs>
				<rect id="SVGID_77_" x="-165.916" y="-231.121" width="1937.676" height="1937.677"/>
			</defs>
			<clipPath id="SVGID_78_">
				<use xlink:href="#SVGID_77_"  overflow="visible"/>
			</clipPath>
			<path clip-path="url(#SVGID_78_)" fill="#D7B483" d="M1037.805,333.792l-6.027,0.039c-1.119,0.007-2.199-0.168-3.207-0.498
				c1.008,0.33,2.088,0.505,3.207,0.498L1037.805,333.792z"/>
		</g>
	</g>
	<g>
		<g>
			<defs>
				<rect id="SVGID_79_" x="-165.916" y="-231.121" width="1937.676" height="1937.677"/>
			</defs>
			<clipPath id="SVGID_80_">
				<use xlink:href="#SVGID_79_"  overflow="visible"/>
			</clipPath>
			<path clip-path="url(#SVGID_80_)" fill="#DDC09A" d="M1024.749,202.095l-3.838,7.832c0.016-3.163,1.506-5.994,3.828-7.823
				c-2.322,1.829-3.814,4.66-3.828,7.823L1024.749,202.095z"/>
		</g>
	</g>
	<g>
		<g>
			<defs>
				<rect id="SVGID_81_" x="-165.916" y="-231.121" width="1937.676" height="1937.677"/>
			</defs>
			<clipPath id="SVGID_82_">
				<use xlink:href="#SVGID_81_"  overflow="visible"/>
			</clipPath>
			<polygon clip-path="url(#SVGID_82_)" fill="#FFFFFF" points="1026.569,317.39 1025.868,216.414 1093.643,215.942 
				1094.352,316.921 			"/>
		</g>
	</g>
	<g>
		<g>
			<defs>
				<rect id="SVGID_83_" x="-165.916" y="-231.121" width="1937.676" height="1937.677"/>
			</defs>
			<clipPath id="SVGID_84_">
				<use xlink:href="#SVGID_83_"  overflow="visible"/>
			</clipPath>
			<polygon clip-path="url(#SVGID_84_)" fill="#595B5D" points="1071.258,209.904 1070.803,210.061 1048.61,210.22 
				1047.872,209.519 1048.143,208.968 1048.598,208.812 1070.784,208.66 1071.514,209.355 			"/>
		</g>
	</g>
	<g>
		<g>
			<defs>
				<rect id="SVGID_85_" x="-165.916" y="-231.121" width="1937.676" height="1937.677"/>
			</defs>
			<clipPath id="SVGID_86_">
				<use xlink:href="#SVGID_85_"  overflow="visible"/>
			</clipPath>
			<path clip-path="url(#SVGID_86_)" fill="#595B5D" d="M1077.297,210.686l-0.988,0.35c-0.902,0.004-1.643-0.72-1.656-1.616
				c0.006-0.533,0.25-1,0.631-1.297l1.004-0.346c0.896-0.01,1.635,0.716,1.637,1.62
				C1077.924,209.916,1077.678,210.39,1077.297,210.686"/>
		</g>
	</g>
	<g>
		<g>
			<defs>
				<rect id="SVGID_87_" x="-165.916" y="-231.121" width="1937.676" height="1937.677"/>
			</defs>
			<clipPath id="SVGID_88_">
				<use xlink:href="#SVGID_87_"  overflow="visible"/>
			</clipPath>
			<rect x="1048.237" y="219.041" clip-path="url(#SVGID_88_)" fill="#A6A8AB" width="23.727" height="1.783"/>
		</g>
	</g>
	<g>
		<g>
			<defs>
				<rect id="SVGID_89_" x="-165.916" y="-231.121" width="1937.676" height="1937.677"/>
			</defs>
			<clipPath id="SVGID_90_">
				<use xlink:href="#SVGID_89_"  overflow="visible"/>
			</clipPath>
			<rect x="1043.04" y="221.56" clip-path="url(#SVGID_90_)" fill="#A6A8AB" width="34.115" height="0.891"/>
		</g>
	</g>
	<g>
		<g>
			<defs>
				<rect id="SVGID_91_" x="-165.916" y="-231.121" width="1937.676" height="1937.677"/>
			</defs>
			<clipPath id="SVGID_92_">
				<use xlink:href="#SVGID_91_"  overflow="visible"/>
			</clipPath>
			<rect x="1028.508" y="229.382" clip-path="url(#SVGID_92_)" fill="#56C4CF" width="63.129" height="40.894"/>
		</g>
	</g>
	<g>
		<g>
			<defs>
				<rect id="SVGID_93_" x="-165.916" y="-231.121" width="1937.676" height="1937.677"/>
			</defs>
			<clipPath id="SVGID_94_">
				<use xlink:href="#SVGID_93_"  overflow="visible"/>
			</clipPath>
			<path clip-path="url(#SVGID_94_)" fill="#FFFFFF" d="M1070.368,246.293l-15.787-0.921c-0.127-0.405-0.926-3.097-1.064-3.261
				c-0.221-0.272-3.021-0.479-3.439-0.504c-0.414-0.021-0.309,0.649-0.203,0.672c0.676,0.093,2.217,0.197,2.893,0.298l3.137,9.741
				v3.854c-0.152,0.197-0.248,0.444-0.248,0.711c0,0.644,0.525,1.162,1.166,1.162c0.645,0,1.16-0.521,1.16-1.162
				c0-0.194-0.047-0.378-0.133-0.542h7.768c-0.088,0.164-0.133,0.348-0.133,0.542c0,0.644,0.52,1.162,1.158,1.162
				c0.646,0,1.164-0.521,1.164-1.162c0-0.397-0.201-0.75-0.508-0.96v-0.396h-10.521v-2.934h11.768L1070.368,246.293z
				 M1054.854,246.165L1054.854,246.165l2.143,0.119v1.667h-1.58L1054.854,246.165z M1057.684,247.951L1057.684,247.951v-1.624
				l1.295,0.071v1.553H1057.684z M1059.575,247.951L1059.575,247.951v-1.516l1.275,0.07v1.443L1059.575,247.951L1059.575,247.951z
				 M1061.52,247.951L1061.52,247.951v-1.404l1.303,0.074v1.33H1061.52z M1063.417,247.951L1063.417,247.951v-1.297l1.297,0.076
				v1.221H1063.417z M1065.401,247.951L1065.401,247.951v-1.182l1.279,0.072v1.107L1065.401,247.951L1065.401,247.951z
				 M1067.295,247.951L1067.295,247.951v-1.072l1.947,0.109l-0.295,0.963H1067.295z M1065.401,248.551L1065.401,248.551h1.279v1.206
				h-1.279V248.551z M1067.295,249.757L1067.295,249.757v-1.206h1.506l-0.371,1.206H1067.295z M1061.52,248.551L1061.52,248.551
				h1.303v1.206h-1.303V248.551z M1063.417,249.757L1063.417,249.757v-1.206h1.297v1.206H1063.417z M1065.401,250.371
				L1065.401,250.371h1.279v1.354h-1.279V250.371z M1067.295,251.725L1067.295,251.725v-1.354h0.982l-0.393,1.354H1067.295z
				 M1059.575,248.551L1059.575,248.551h1.275v1.206h-1.275V248.551z M1061.52,250.371L1061.52,250.371h1.303v1.354h-1.303V250.371z
				 M1063.417,251.725L1063.417,251.725v-1.354h1.297v1.354H1063.417z M1057.684,249.757L1057.684,249.757v-1.206h1.295v1.206
				H1057.684z M1057.684,250.371L1057.684,250.371h1.295v1.354h-1.295V250.371z M1059.575,251.725L1059.575,251.725v-1.354h1.275
				v1.354H1059.575z M1055.624,248.551L1055.624,248.551h1.373v1.206h-0.969L1055.624,248.551z M1056.233,250.371L1056.233,250.371
				h0.764v1.354h-0.371L1056.233,250.371z M1056.819,256.527L1056.819,256.527c0.197,0,0.359,0.162,0.359,0.359
				c0,0.199-0.162,0.357-0.359,0.357s-0.363-0.158-0.363-0.357C1056.456,256.689,1056.622,256.527,1056.819,256.527
				 M1066.639,256.527L1066.639,256.527c0.203,0,0.363,0.162,0.363,0.359c0,0.199-0.16,0.357-0.363,0.357
				c-0.199,0-0.355-0.158-0.355-0.357C1066.284,256.689,1066.438,256.527,1066.639,256.527"/>
		</g>
	</g>
	<g>
		<g>
			<defs>
				<rect id="SVGID_95_" x="-165.916" y="-231.121" width="1937.676" height="1937.677"/>
			</defs>
			<clipPath id="SVGID_96_">
				<use xlink:href="#SVGID_95_"  overflow="visible"/>
			</clipPath>
			<path clip-path="url(#SVGID_96_)" fill="#496E6E" d="M1045.813,295.279h30.494c0.867,0,1.576,0.711,1.576,1.58v6.536
				c0,0.868-0.709,1.578-1.576,1.578h-30.494c-0.863,0-1.574-0.71-1.574-1.578v-6.536
				C1044.239,295.99,1044.95,295.279,1045.813,295.279"/>
		</g>
	</g>
</g>
<text transform="matrix(1 0 0 1 1049.2368 303.4482)" fill="#FFFFFF" font-family="'ArialMT'" font-size="5.4504">BU</text>
<text transform="matrix(1 0 0 1 1056.8091 303.4482)" fill="#FFFFFF" font-family="'ArialMT'" font-size="5.4504">Y</text>
<text transform="matrix(1 0 0 1 1060.3452 303.4482)" fill="#FFFFFF" font-family="'ArialMT'" font-size="5.4504"> NOW</text>
<polygon fill="#A43A23" points="1484.475,215.11 1473.397,212.947 1473.381,224.671 1484.708,227.961 "/>
<polygon fill="#A43A23" points="1564.557,340.821 1562.266,221.055 1559.313,220.786 1536.844,222.862 1536.538,223.462 
	1550.561,333.285 1550.625,333.614 1564.467,340.911 "/>
<polygon fill="#F47F45" points="1460.243,353.21 1544.672,361.468 1546.362,228.548 1545.372,228 1458.237,218.445 1457.95,218.454 
	"/>
<polygon fill="#822B15" points="1544.672,361.468 1564.557,340.821 1550.864,333.445 1546.657,331.183 "/>
<polygon fill="#F06022" points="1550.879,333.457 1544.668,361.468 1546.362,228.548 "/>
<polygon fill="#70220B" points="1457.95,218.455 1537.088,227.486 1537.112,223.424 1562.266,221.056 1473.397,212.947 
	1484.415,217.689 "/>
<polygon fill="#822B15" points="1537.112,223.423 1545.372,227.999 1546.362,228.55 1537.088,227.488 1537.088,227.093 "/>
<polygon fill="#822B15" points="1484.415,217.689 1484.254,221.458 1457.95,218.455 "/>
<path fill="#A6A8AB" d="M1483.833,234.954c-1.48,0-2.689-1.208-2.689-2.687c0-1.48,1.209-2.685,2.689-2.685
	c1.479,0,2.684,1.202,2.684,2.685C1486.516,233.746,1485.311,234.954,1483.833,234.954"/>
<path fill="#404041" d="M1483.833,234.384c-1.16,0-2.123-0.946-2.123-2.116c0-1.165,0.963-2.122,2.123-2.122
	c1.168,0,2.123,0.957,2.123,2.122C1485.956,233.438,1485,234.384,1483.833,234.384"/>
<path fill="#A6A8AB" d="M1515.678,239.902c-1.48,0-2.684-1.203-2.684-2.688c0-1.479,1.203-2.686,2.684-2.686
	c1.479,0,2.686,1.207,2.686,2.686C1518.364,238.699,1517.157,239.902,1515.678,239.902"/>
<path fill="#404041" d="M1515.678,239.335c-1.164,0-2.119-0.951-2.119-2.119s0.955-2.116,2.119-2.116
	c1.166,0,2.119,0.948,2.119,2.116S1516.844,239.335,1515.678,239.335"/>
<path fill="#FDDBC5" d="M1500.583,290.13c7,0,12.26-1.944,15.674-5.8c7.822-8.854,4.557-25.616,1.92-39.079
	c-0.512-2.642-1.006-4.646-1.365-6.776c-0.031-0.205-0.145-0.381-0.318-0.498c-0.16-0.115-0.373-0.153-0.572-0.108l-0.719,0.147
	c-0.313,0.066-0.51,0.358-0.455,0.67c0.369,2.24,0.895,4.203,1.438,6.961c2.537,13.022,5.707,29.231-1.453,37.33
	c-3.424,3.877-9.117,5.563-16.928,5.014c-6.377-0.444-10.91-2.521-13.871-6.344c-6.781-8.73-3.781-25.15-1.369-38.35
	c0.703-3.844,1.115-6.211,1.525-9.215c0.047-0.335-0.166-0.654-0.498-0.743l-0.742-0.198c-0.166-0.047-0.338-0.021-0.479,0.069
	c-0.141,0.095-0.234,0.242-0.26,0.408c-0.473,2.938-0.867,5.53-1.553,9.315c-2.484,13.592-5.574,30.512,1.764,39.963
	c3.293,4.244,8.453,6.642,15.338,7.125C1498.667,290.091,1499.639,290.13,1500.583,290.13"/>
<rect x="1028.508" y="272.248" fill="#F48366" width="20.336" height="14.895"/>
<rect x="1050.09" y="272.248" fill="#F9A64A" width="20.338" height="14.895"/>
<rect x="1071.299" y="272.248" fill="#56C4CF" width="20.338" height="14.895"/>
<path fill="#FFFFFF" d="M1016.668,109.258l39.857-15.725c0.438-0.177,0.941,0.044,1.123,0.485l3.02,7.668
	c0.174,0.442-0.043,0.945-0.488,1.124l-39.854,15.724c-0.441,0.175-0.947-0.043-1.123-0.487l-3.025-7.667
	C1016.002,109.939,1016.227,109.433,1016.668,109.258 M1020.946,121.753l0.316,0.805l41.379-16.324l-0.318-0.807L1020.946,121.753z
	 M1056.104,87.85L1056.104,87.85l-43.01,16.97c-1.244,0.488-1.854,1.9-1.363,3.139l21.186,53.692
	c0.486,1.237,1.898,1.851,3.137,1.36l43.006-16.969c1.242-0.487,1.855-1.898,1.365-3.135l-21.186-53.695
	C1058.75,87.976,1057.342,87.364,1056.104,87.85 M1044.272,118.184c-0.154,0.063-0.229,0.235-0.17,0.389l2.441,6.187
	c0.063,0.152,0.236,0.232,0.391,0.172l8.713-3.439c0.154-0.061,0.234-0.237,0.174-0.392l-2.439-6.187
	c-0.063-0.152-0.24-0.229-0.395-0.166L1044.272,118.184z M1057.864,122.566l2.439,6.188c0.064,0.154,0.234,0.234,0.391,0.172
	l8.715-3.437c0.154-0.063,0.232-0.24,0.174-0.396l-2.443-6.186c-0.061-0.152-0.238-0.23-0.393-0.171l-8.713,3.441
	C1057.879,122.239,1057.803,122.416,1057.864,122.566 M1061.25,130.33L1061.25,130.33l8.713-3.438
	c0.154-0.062,0.332,0.014,0.393,0.171l5.656,14.338c0.064,0.154-0.014,0.329-0.172,0.389l-8.711,3.441
	c-0.154,0.059-0.33-0.017-0.393-0.171l-5.656-14.339C1061.018,130.566,1061.094,130.391,1061.25,130.33 M1047.485,126.336
	L1047.485,126.336l8.723-3.437c0.15-0.061,0.332,0.014,0.393,0.166l2.439,6.186c0.063,0.156-0.016,0.336-0.172,0.396l-8.715,3.439
	c-0.154,0.061-0.326-0.021-0.391-0.176l-2.438-6.186C1047.26,126.574,1047.334,126.396,1047.485,126.336 M1050.706,134.49
	L1050.706,134.49l8.719-3.44c0.15-0.058,0.33,0.019,0.395,0.171l2.438,6.184c0.063,0.157-0.018,0.333-0.172,0.392l-8.715,3.44
	c-0.154,0.061-0.332-0.016-0.395-0.17l-2.438-6.188C1050.479,134.726,1050.553,134.55,1050.706,134.49 M1053.92,142.639
	L1053.92,142.639l8.717-3.439c0.154-0.058,0.334,0.019,0.395,0.173l2.441,6.186c0.057,0.154-0.021,0.332-0.174,0.393l-8.715,3.438
	c-0.154,0.06-0.33-0.016-0.389-0.17l-2.441-6.187C1053.694,142.878,1053.77,142.699,1053.92,142.639 M1054.817,114.025
	c-0.156,0.061-0.23,0.237-0.174,0.39l2.445,6.188c0.057,0.151,0.234,0.229,0.389,0.169l8.717-3.438
	c0.152-0.062,0.229-0.24,0.172-0.393l-2.445-6.186c-0.057-0.152-0.23-0.23-0.393-0.167L1054.817,114.025z M1033.729,122.345
	L1033.729,122.345l8.715-3.439c0.156-0.059,0.336,0.013,0.393,0.17l2.445,6.184c0.059,0.154-0.021,0.33-0.172,0.393l-8.719,3.438
	c-0.152,0.063-0.328-0.016-0.389-0.172l-2.441-6.182C1033.504,122.58,1033.579,122.405,1033.729,122.345 M1036.946,130.499
	L1036.946,130.499l8.717-3.44c0.15-0.061,0.334,0.015,0.391,0.168l2.441,6.184c0.061,0.159-0.016,0.336-0.168,0.396l-8.717,3.439
	c-0.154,0.061-0.33-0.018-0.395-0.174l-2.438-6.186C1036.717,130.732,1036.792,130.556,1036.946,130.499 M1040.163,138.651
	L1040.163,138.651l8.717-3.438c0.154-0.063,0.33,0.014,0.393,0.165l2.441,6.187c0.063,0.156-0.02,0.332-0.174,0.394l-8.717,3.437
	c-0.15,0.063-0.324-0.017-0.389-0.17l-2.439-6.187C1039.934,138.885,1040.01,138.708,1040.163,138.651 M1043.375,146.801
	L1043.375,146.801l8.721-3.44c0.154-0.061,0.33,0.017,0.391,0.17l2.441,6.186c0.063,0.156-0.018,0.332-0.172,0.393l-8.717,3.439
	c-0.148,0.063-0.324-0.018-0.387-0.173l-2.441-6.183C1043.151,147.038,1043.225,146.859,1043.375,146.801 M1035.516,131.386
	L1035.516,131.386l2.438,6.188c0.064,0.154-0.018,0.33-0.17,0.393l-8.717,3.438c-0.15,0.061-0.324-0.019-0.389-0.173l-2.438-6.186
	c-0.064-0.155,0.01-0.33,0.158-0.39l8.721-3.44C1035.27,131.157,1035.454,131.231,1035.516,131.386 M1029.622,142.81
	L1029.622,142.81l8.715-3.441c0.154-0.061,0.334,0.016,0.395,0.168l2.439,6.186c0.061,0.156-0.016,0.332-0.174,0.393l-8.715,3.439
	c-0.154,0.061-0.322-0.016-0.391-0.172l-2.438-6.184C1029.395,143.046,1029.465,142.871,1029.622,142.81 M1032.836,150.958
	L1032.836,150.958l8.719-3.437c0.15-0.061,0.332,0.016,0.393,0.168l2.438,6.187c0.064,0.155-0.014,0.333-0.168,0.394l-8.717,3.438
	c-0.156,0.063-0.33-0.018-0.391-0.173l-2.439-6.183C1032.61,151.197,1032.682,151.02,1032.836,150.958 M1023.19,126.503
	L1023.19,126.503l8.715-3.439c0.152-0.062,0.33,0.015,0.395,0.171l2.438,6.183c0.061,0.155-0.018,0.332-0.172,0.393l-8.715,3.438
	c-0.15,0.063-0.332-0.015-0.393-0.167l-2.438-6.188C1022.959,126.742,1023.036,126.564,1023.19,126.503"/>
<path fill="#FFFFFF" d="M1046.762,103.452l0.93,2.345l-1.26-0.541l-0.479-1.224l0.336-0.783L1046.762,103.452z M1045.368,102.565
	L1045.368,102.565l-0.48-1.222l0.549-1.257l0.926,2.349l-0.199,0.479L1045.368,102.565z M1050.438,97.923L1050.438,97.923
	l-0.545,1.256l-1.693,0.668l-1.254-0.547L1050.438,97.923z M1052.821,103.967L1052.821,103.967l-3.488,1.379l0.539-1.259
	l1.693-0.671L1052.821,103.967z M1049.151,102.753L1049.151,102.753l-0.787-0.339l-0.205,0.472l0.93,2.352l0.547-1.268
	L1049.151,102.753z M1050.6,100.494L1050.6,100.494l0.785,0.348l0.205-0.477l-0.922-2.339l-0.547,1.248L1050.6,100.494z
	 M1050.659,100.812L1050.659,100.812l0.631,0.273l-0.275,0.63l-1.918,0.755l-0.613-0.275l0.258-0.628L1050.659,100.812z
	 M1055.286,96.012L1055.286,96.012l-0.543,1.253l-1.697,0.67l-1.256-0.546L1055.286,96.012z M1057.668,102.053L1057.668,102.053
	l-3.49,1.38l0.543-1.26l1.691-0.669L1057.668,102.053z M1056.844,99.474L1056.844,99.474l-0.471-0.206l-0.346,0.785l0.479,1.216
	l1.262,0.551L1056.844,99.474z M1055.452,98.585L1055.452,98.585l0.787,0.353l0.203-0.48l-0.928-2.345l-0.547,1.247L1055.452,98.585
	z M1055.512,98.896L1055.512,98.896l0.627,0.273l-0.266,0.629l-1.92,0.757l-0.631-0.274l0.27-0.63L1055.512,98.896z"/>
<path fill="#FFFFFF" d="M1481.467,75.793c-1.666,1.79-5.451,0.7-6.305,2.509c-0.396,2.672,8.293,6.846,9.889,8.143h11.809
	c4.471-1.445,7.77-3.934,10.162-7.229c-0.896,0.13-1.813,0.175-2.734,0.175c-8.738-0.045,0.701-11.907-2.992-11.98
	c-3.691-0.071-2.467,4.939-8.678,7.348c-2.23,0.863-6.758-5.307-9.85-5.154C1480.563,69.712,1482.87,74.291,1481.467,75.793"/>
<path fill="#FFFFFF" d="M1494.036,87.382h-6.717c-0.98-0.016-1.814,0.341-1.975,0.577l-0.055,0.081v0.717l0.055,0.076l0.369,0.256
	l0.881,0.256h8.199c0.627-0.105,1.102-0.344,1.217-0.512l0.053-0.076V88.04l-0.053-0.085l-0.371-0.255
	C1495.282,87.517,1494.688,87.382,1494.036,87.382"/>
<path fill="#FFFFFF" d="M1489.063,101.48v-3.219h4.193v3.268c3.375,0.3,6.307,1.514,8.773,3.643l-4.617,5.433
	c-1.678-1.335-3.09-2.173-4.234-2.507v6.885c6.406,1.842,9.611,5.255,9.611,10.246c0,2.504-0.816,4.616-2.449,6.334
	c-1.635,1.715-4.039,2.847-7.213,3.38v4.149h-4.115v-4.1h-0.684c-1.543,0-3.354-0.416-5.428-1.242
	c-2.066-0.82-3.668-1.877-4.814-3.163l4.416-5.22c1.865,1.828,4.031,2.967,6.51,3.432v-8c-3.063-0.731-5.393-2-7.004-3.814
	c-1.6-1.812-2.408-3.908-2.408-6.284c0-2.528,0.779-4.659,2.34-6.397C1483.489,102.562,1485.864,101.62,1489.063,101.48
	 M1496.618,90.015L1496.618,90.015h-11.563c-16.729,7.389-18.717,22.715-18.705,39.184c-0.037,4.123,0.639,7.7,1.965,8.949
	c3.701,3.771,13.125,5.908,22.52,5.877c9.396,0.031,18.828-2.105,22.521-5.877c1.334-1.249,2.006-4.826,1.975-8.949
	c0-4.115-0.553-8.773-1.104-12.385C1511.803,103.507,1510.098,96.28,1496.618,90.015"/>
<path fill="#FFFFFF" d="M1489.012,107.913c-1.564,0.502-2.346,1.445-2.346,2.83c0,1.493,0.781,2.503,2.346,3.021V107.913z"/>
<path fill="#FFFFFF" d="M1493.178,122.204v6.188c1.729-0.419,2.592-1.431,2.592-3.071
	C1495.77,123.829,1494.907,122.789,1493.178,122.204"/>
<path fill="#FFFFFF" d="M1231.084,67.779c-5.723,1.668-10.012,8.586-10.012,16.869c0,0.316,0.006,0.635,0.02,0.949h25.334
	c0.01-0.314,0.02-0.633,0.02-0.949c0-8.283-4.297-15.201-10.012-16.873c3.277-1.087,5.646-4.129,5.646-7.707
	c0-4.484-3.73-8.13-8.322-8.13c-4.596,0-8.322,3.646-8.322,8.13C1225.436,63.646,1227.799,66.688,1231.084,67.779"/>
<path fill="#FFFFFF" d="M1238.221,35.799c-3.213,2.095-4.945,4.771-4.941,7.538c-0.086,4.37,4.672,8.783,12.027,10.357l1.512,0.324
	l-0.156,1.504c-0.127,1.594-0.727,4.006-2.408,6.21c3.322-1.077,7.342-3.198,10.947-7.351l0.396-0.455l0.596-0.114
	c7.682-1.451,12.717-5.984,12.621-10.476c0.002-2.767-1.73-5.443-4.938-7.538c-3.191-2.073-7.758-3.427-12.826-3.421h-0.045
	C1245.948,32.378,1241.395,33.732,1238.221,35.799 M1241.194,44.764L1241.194,44.764h20.967c0.488,0,0.895,0.401,0.895,0.897
	c0,0.49-0.404,0.892-0.895,0.892h-20.967c-0.492,0-0.896-0.401-0.896-0.892C1240.297,45.166,1240.702,44.764,1241.194,44.764
	 M1241.194,38.839L1241.194,38.839h20.967c0.488,0,0.895,0.402,0.895,0.896c0,0.49-0.404,0.896-0.895,0.896h-20.967
	c-0.492,0-0.896-0.406-0.896-0.896C1240.297,39.242,1240.702,38.839,1241.194,38.839"/>
<path fill="#FFFFFF" d="M1375.696,64.15c1.438,0.103,3.488,0.149,4.982-0.234c2.561-0.654,6.787-6.786,8.631-9.35
	c1.85-2.558,1.014-8.93,1.432-9.285c0.418-0.358,1.07-1.133,2.615-0.358c1.555,0.774,3.281,3.155,3.164,6.907
	c-0.121,3.752-1.609,7.322-1.551,9.109c0.059,1.785,1.967,2.024,4.885,2.858c2.912,0.831,5.713,1.486,6.904,3.212
	c1.189,1.729-1.129,4.466-1.49,4.766c-0.354,0.295,0.537,0.715-0.057,2.859c-0.594,2.143-2.381,2.678-2.381,2.678
	s0.238,1.489-0.508,2.77c-0.746,1.278-2.5,1.785-2.5,1.785s0.355,1.876-1.102,2.648c-1.459,0.775-8.662,0.566-11.287-0.742
	c-2.615-1.312-5.059-3.574-7.264-3.989c-1.422-0.27-3.844-0.218-5.57-0.24c0.053-0.118,0.084-0.246,0.094-0.378l0.996-14.91
	C1375.696,64.218,1375.696,64.183,1375.696,64.15"/>
<path fill="#FFFFFF" d="M1369.944,62.703l3.859,0.26c0.623,0.041,1.1,0.584,1.051,1.203l-0.994,14.91
	c-0.041,0.621-0.582,1.095-1.201,1.055l-3.863-0.26c-0.619-0.041-1.094-0.583-1.051-1.203l0.998-14.91
	C1368.782,63.136,1369.325,62.662,1369.944,62.703"/>
</svg>
