<?xml version="1.0" encoding="utf-8"?>
<!-- Generator: Adobe Illustrator 15.0.2, SVG Export Plug-In . SVG Version: 6.00 Build 0)  -->
<!DOCTYPE svg PUBLIC "-//W3C//DTD SVG 1.1//EN" "http://www.w3.org/Graphics/SVG/1.1/DTD/svg11.dtd">
<svg version="1.1" id="Слой_1" xmlns="http://www.w3.org/2000/svg" xmlns:xlink="http://www.w3.org/1999/xlink" x="0px" y="0px"
	 width="1151.4px" height="318.6px" viewBox="0 0 1151.4 318.6" enable-background="new 0 0 1151.4 318.6" xml:space="preserve">
<image overflow="visible" width="1919" height="531" xlink:href="City.jpg"  transform="matrix(0.6 0 0 0.6 0 0)">
</image>
<rect opacity="0.32" fill="#38C2FF" width="1151.4" height="318.6"/>
<g>
	<path fill="#FFFFFF" d="M423.626,102.456c0.936,0.6,2.28,1.056,3.72,1.056c2.136,0,3.384-1.104,3.384-2.76
		c0-1.488-0.864-2.376-3.048-3.192c-2.641-0.96-4.272-2.353-4.272-4.608c0-2.521,2.088-4.393,5.232-4.393
		c1.632,0,2.856,0.384,3.552,0.792l-0.576,1.704c-0.504-0.312-1.584-0.768-3.048-0.768c-2.208,0-3.048,1.32-3.048,2.424
		c0,1.512,0.984,2.256,3.216,3.12c2.736,1.08,4.104,2.376,4.104,4.752c0,2.497-1.824,4.681-5.641,4.681
		c-1.56,0-3.264-0.48-4.128-1.056L423.626,102.456z"/>
	<path fill="#FFFFFF" d="M442.035,105.264c-4.296,0-7.272-3.313-7.272-8.209c0-5.136,3.168-8.497,7.488-8.497
		c4.44,0,7.297,3.384,7.297,8.185c0,5.544-3.384,8.521-7.489,8.521H442.035z M442.131,103.56c3.312,0,5.184-3.048,5.184-6.721
		c0-3.216-1.68-6.577-5.16-6.577c-3.48,0-5.208,3.24-5.208,6.745c0,3.408,1.872,6.553,5.16,6.553H442.131z"/>
	<path fill="#FFFFFF" d="M465.891,97.896c-0.12-2.256-0.264-4.993-0.264-6.985h-0.048c-0.576,1.872-1.224,3.913-2.041,6.145
		l-2.856,7.849h-1.584l-2.64-7.705c-0.768-2.304-1.392-4.368-1.848-6.289h-0.048c-0.048,2.016-0.168,4.705-0.312,7.153L453.818,105
		h-1.992l1.128-16.177h2.665l2.76,7.825c0.672,1.992,1.2,3.768,1.632,5.448h0.048c0.432-1.632,1.008-3.408,1.728-5.448l2.88-7.825
		h2.664L468.339,105h-2.064L465.891,97.896z"/>
	<path fill="#FFFFFF" d="M479.906,97.416h-6.265v5.833h7.009V105h-9.121V88.823h8.761v1.752h-6.649v5.112h6.265V97.416z"/>
	<path fill="#FFFFFF" d="M490.538,90.599h-4.92v-1.776h11.977v1.776h-4.944V105h-2.112V90.599z"/>
	<path fill="#FFFFFF" d="M507.746,97.416h-6.265v5.833h7.009V105h-9.121V88.823h8.761v1.752h-6.649v5.112h6.265V97.416z"/>
	<path fill="#FFFFFF" d="M520.058,105l-2.088-3.576c-0.84-1.368-1.344-2.256-1.848-3.192h-0.048c-0.456,0.936-0.936,1.8-1.752,3.216
		L512.377,105h-2.4l4.944-8.185l-4.752-7.993h2.424l2.136,3.792c0.6,1.056,1.056,1.873,1.488,2.736h0.072
		c0.456-0.96,0.864-1.704,1.464-2.736l2.184-3.792h2.424l-4.921,7.873l5.041,8.305H520.058z"/>
	<path fill="#FFFFFF" d="M528.169,90.599h-4.92v-1.776h11.977v1.776h-4.944V105h-2.112V90.599z"/>
	<path fill="#FFFFFF" d="M544.729,99.912l-1.68,5.088h-2.16l5.497-16.177h2.52L554.425,105h-2.232l-1.729-5.088H544.729z
		 M550.033,98.279l-1.608-4.656c-0.336-1.056-0.576-2.016-0.816-2.952h-0.072c-0.216,0.936-0.48,1.944-0.792,2.928l-1.584,4.68
		H550.033z"/>
	<path fill="#FFFFFF" d="M556.801,89.063c0.912-0.216,2.376-0.36,3.816-0.36c2.088,0,3.432,0.36,4.416,1.176
		c0.84,0.624,1.368,1.584,1.368,2.856c0,1.584-1.056,2.952-2.736,3.552v0.072c1.536,0.36,3.336,1.632,3.336,4.032
		c0,1.392-0.552,2.448-1.392,3.24c-1.104,1.032-2.928,1.512-5.568,1.512c-1.44,0-2.544-0.096-3.24-0.192V89.063z M558.889,95.687
		h1.896c2.184,0,3.48-1.176,3.48-2.736c0-1.873-1.416-2.641-3.528-2.641c-0.96,0-1.512,0.072-1.849,0.144V95.687z M558.889,103.416
		c0.432,0.072,1.008,0.096,1.752,0.096c2.16,0,4.152-0.792,4.152-3.144c0-2.184-1.896-3.12-4.176-3.12h-1.729V103.416z"/>
	<path fill="#FFFFFF" d="M576.121,105.264c-4.296,0-7.272-3.313-7.272-8.209c0-5.136,3.168-8.497,7.488-8.497
		c4.44,0,7.297,3.384,7.297,8.185c0,5.544-3.384,8.521-7.489,8.521H576.121z M576.217,103.56c3.313,0,5.185-3.048,5.185-6.721
		c0-3.216-1.681-6.577-5.16-6.577c-3.48,0-5.208,3.24-5.208,6.745c0,3.408,1.872,6.553,5.161,6.553H576.217z"/>
	<path fill="#FFFFFF" d="M588.432,88.823v9.601c0,3.601,1.609,5.137,3.77,5.137c2.375,0,3.936-1.584,3.936-5.137v-9.601h2.112v9.457
		c0,4.969-2.616,6.985-6.12,6.985c-3.313,0-5.809-1.872-5.809-6.913v-9.529H588.432z"/>
	<path fill="#FFFFFF" d="M604.944,90.599h-4.921v-1.776h11.978v1.776h-4.944V105h-2.112V90.599z"/>
	<path fill="#FFFFFF" d="M618.623,102.456c0.937,0.6,2.281,1.056,3.721,1.056c2.137,0,3.385-1.104,3.385-2.76
		c0-1.488-0.864-2.376-3.049-3.192c-2.641-0.96-4.271-2.353-4.271-4.608c0-2.521,2.088-4.393,5.232-4.393
		c1.631,0,2.855,0.384,3.552,0.792l-0.576,1.704c-0.504-0.312-1.584-0.768-3.048-0.768c-2.209,0-3.049,1.32-3.049,2.424
		c0,1.512,0.984,2.256,3.217,3.12c2.736,1.08,4.104,2.376,4.104,4.752c0,2.497-1.824,4.681-5.641,4.681
		c-1.56,0-3.264-0.48-4.127-1.056L618.623,102.456z"/>
	<path fill="#FFFFFF" d="M637.032,105.264c-4.296,0-7.272-3.313-7.272-8.209c0-5.136,3.168-8.497,7.488-8.497
		c4.44,0,7.297,3.384,7.297,8.185c0,5.544-3.385,8.521-7.488,8.521H637.032z M637.129,103.56c3.312,0,5.184-3.048,5.184-6.721
		c0-3.216-1.68-6.577-5.16-6.577s-5.209,3.24-5.209,6.745c0,3.408,1.873,6.553,5.16,6.553H637.129z"/>
	<path fill="#FFFFFF" d="M660.889,97.896c-0.12-2.256-0.264-4.993-0.264-6.985h-0.049c-0.576,1.872-1.224,3.913-2.04,6.145
		l-2.856,7.849h-1.584l-2.641-7.705c-0.768-2.304-1.392-4.368-1.848-6.289h-0.048c-0.048,2.016-0.168,4.705-0.312,7.153L648.815,105
		h-1.992l1.128-16.177h2.664l2.761,7.825c0.672,1.992,1.2,3.768,1.632,5.448h0.049c0.432-1.632,1.008-3.408,1.728-5.448l2.88-7.825
		h2.664L663.337,105h-2.064L660.889,97.896z"/>
	<path fill="#FFFFFF" d="M669.623,90.599h-4.92v-1.776h11.977v1.776h-4.944V105h-2.112V90.599z"/>
	<path fill="#FFFFFF" d="M680.566,88.823v6.769h7.825v-6.769h2.112V105h-2.112v-7.584h-7.825V105h-2.111V88.823H680.566z"/>
	<path fill="#FFFFFF" d="M696.215,88.823V105h-2.111V88.823H696.215z"/>
	<path fill="#FFFFFF" d="M699.863,105V88.823h2.304l5.16,8.185c1.177,1.896,2.136,3.576,2.88,5.256l0.072-0.024
		c-0.191-2.16-0.24-4.128-0.24-6.625v-6.792h1.969V105h-2.112l-5.136-8.208c-1.129-1.8-2.209-3.648-3.001-5.401l-0.071,0.024
		c0.119,2.04,0.144,3.984,0.144,6.672V105H699.863z"/>
	<path fill="#FFFFFF" d="M727.991,104.28c-0.936,0.36-2.809,0.888-4.992,0.888c-2.448,0-4.465-0.624-6.049-2.136
		c-1.392-1.344-2.256-3.504-2.256-6.024c0-4.824,3.336-8.353,8.761-8.353c1.872,0,3.36,0.408,4.057,0.744l-0.528,1.705
		c-0.864-0.408-1.944-0.696-3.576-0.696c-3.937,0-6.505,2.448-6.505,6.504c0,4.104,2.448,6.529,6.24,6.529
		c1.368,0,2.305-0.192,2.784-0.432v-4.824h-3.264v-1.68h5.328V104.28z"/>
	<path fill="#FFFFFF" d="M400.815,116.758h2.112v7.272h0.048c0.744-1.296,2.088-2.112,3.96-2.112c2.88,0,4.896,2.4,4.896,5.904
		c0,4.176-2.64,6.241-5.232,6.241c-1.68,0-3-0.648-3.888-2.184h-0.048l-0.12,1.92h-1.824c0.072-0.792,0.096-1.968,0.096-3V116.758z
		 M402.928,129.144c0,0.264,0.024,0.528,0.072,0.768c0.408,1.464,1.656,2.472,3.168,2.472c2.232,0,3.528-1.8,3.528-4.464
		c0-2.353-1.2-4.345-3.456-4.345c-1.44,0-2.784,1.008-3.192,2.592c-0.072,0.264-0.12,0.552-0.12,0.888V129.144z"/>
	<path fill="#FFFFFF" d="M414.471,116.758h2.112V133.8h-2.112V116.758z"/>
	<path fill="#FFFFFF" d="M428.272,131.016c0,1.008,0.048,1.992,0.168,2.784h-1.896l-0.192-1.464h-0.072
		c-0.624,0.912-1.896,1.729-3.552,1.729c-2.353,0-3.553-1.656-3.553-3.336c0-2.808,2.497-4.344,6.985-4.32v-0.24
		c0-0.96-0.264-2.712-2.64-2.688c-1.104,0-2.232,0.312-3.048,0.864l-0.48-1.416c0.96-0.6,2.376-1.008,3.84-1.008
		c3.576,0,4.44,2.424,4.44,4.752V131.016z M426.208,127.871c-2.304-0.048-4.92,0.36-4.92,2.616c0,1.393,0.912,2.017,1.968,2.017
		c1.536,0,2.52-0.96,2.856-1.944c0.072-0.216,0.096-0.456,0.096-0.672V127.871z"/>
	<path fill="#FFFFFF" d="M431.655,116.758h2.112v7.249h0.048c0.336-0.6,0.864-1.152,1.512-1.488c0.624-0.384,1.368-0.6,2.16-0.6
		c1.561,0,4.057,0.96,4.057,4.968v6.913h-2.112v-6.672c0-1.896-0.696-3.457-2.688-3.457c-1.368,0-2.424,0.96-2.833,2.112
		c-0.12,0.288-0.144,0.6-0.144,1.008v7.009h-2.112V116.758z"/>
	<path fill="#FFFFFF" d="M444.975,116.758h2.112v7.272h0.048c0.744-1.296,2.088-2.112,3.96-2.112c2.88,0,4.896,2.4,4.896,5.904
		c0,4.176-2.64,6.241-5.232,6.241c-1.68,0-3-0.648-3.888-2.184h-0.048l-0.12,1.92h-1.824c0.072-0.792,0.096-1.968,0.096-3V116.758z
		 M447.087,129.144c0,0.264,0.024,0.528,0.072,0.768c0.408,1.464,1.656,2.472,3.168,2.472c2.232,0,3.528-1.8,3.528-4.464
		c0-2.353-1.2-4.345-3.456-4.345c-1.44,0-2.784,1.008-3.192,2.592c-0.072,0.264-0.12,0.552-0.12,0.888V129.144z"/>
	<path fill="#FFFFFF" d="M458.63,116.758h2.112V133.8h-2.112V116.758z"/>
	<path fill="#FFFFFF" d="M472.431,131.016c0,1.008,0.048,1.992,0.168,2.784h-1.896l-0.192-1.464h-0.072
		c-0.624,0.912-1.896,1.729-3.552,1.729c-2.353,0-3.553-1.656-3.553-3.336c0-2.808,2.497-4.344,6.985-4.32v-0.24
		c0-0.96-0.264-2.712-2.64-2.688c-1.104,0-2.232,0.312-3.048,0.864l-0.48-1.416c0.96-0.6,2.376-1.008,3.84-1.008
		c3.576,0,4.44,2.424,4.44,4.752V131.016z M470.367,127.871c-2.304-0.048-4.92,0.36-4.92,2.616c0,1.393,0.912,2.017,1.968,2.017
		c1.536,0,2.52-0.96,2.856-1.944c0.072-0.216,0.096-0.456,0.096-0.672V127.871z"/>
	<path fill="#FFFFFF" d="M475.814,116.758h2.112v7.249h0.048c0.336-0.6,0.864-1.152,1.512-1.488c0.624-0.384,1.368-0.6,2.16-0.6
		c1.561,0,4.057,0.96,4.057,4.968v6.913h-2.112v-6.672c0-1.896-0.696-3.457-2.688-3.457c-1.368,0-2.424,0.96-2.833,2.112
		c-0.12,0.288-0.144,0.6-0.144,1.008v7.009h-2.112V116.758z"/>
	<path fill="#FFFFFF" d="M489.134,116.758h2.112v7.272h0.048c0.744-1.296,2.088-2.112,3.96-2.112c2.88,0,4.896,2.4,4.896,5.904
		c0,4.176-2.64,6.241-5.232,6.241c-1.68,0-3-0.648-3.888-2.184h-0.048l-0.12,1.92h-1.824c0.072-0.792,0.096-1.968,0.096-3V116.758z
		 M491.246,129.144c0,0.264,0.024,0.528,0.072,0.768c0.408,1.464,1.656,2.472,3.168,2.472c2.232,0,3.528-1.8,3.528-4.464
		c0-2.353-1.2-4.345-3.456-4.345c-1.44,0-2.784,1.008-3.192,2.592c-0.072,0.264-0.12,0.552-0.12,0.888V129.144z"/>
	<path fill="#FFFFFF" d="M502.79,116.758h2.112V133.8h-2.112V116.758z"/>
	<path fill="#FFFFFF" d="M516.59,131.016c0,1.008,0.048,1.992,0.168,2.784h-1.896l-0.192-1.464h-0.072
		c-0.624,0.912-1.896,1.729-3.552,1.729c-2.353,0-3.553-1.656-3.553-3.336c0-2.808,2.497-4.344,6.985-4.32v-0.24
		c0-0.96-0.264-2.712-2.64-2.688c-1.104,0-2.232,0.312-3.048,0.864l-0.48-1.416c0.96-0.6,2.376-1.008,3.84-1.008
		c3.576,0,4.44,2.424,4.44,4.752V131.016z M514.526,127.871c-2.304-0.048-4.92,0.36-4.92,2.616c0,1.393,0.912,2.017,1.968,2.017
		c1.536,0,2.52-0.96,2.856-1.944c0.072-0.216,0.096-0.456,0.096-0.672V127.871z"/>
	<path fill="#FFFFFF" d="M519.973,116.758h2.112v7.249h0.048c0.336-0.6,0.864-1.152,1.512-1.488c0.624-0.384,1.368-0.6,2.16-0.6
		c1.561,0,4.057,0.96,4.057,4.968v6.913h-2.112v-6.672c0-1.896-0.696-3.457-2.688-3.457c-1.368,0-2.424,0.96-2.833,2.112
		c-0.12,0.288-0.144,0.6-0.144,1.008v7.009h-2.112V116.758z"/>
	<path fill="#FFFFFF" d="M533.293,116.758h2.112v7.272h0.048c0.744-1.296,2.088-2.112,3.96-2.112c2.88,0,4.896,2.4,4.896,5.904
		c0,4.176-2.64,6.241-5.232,6.241c-1.68,0-3-0.648-3.888-2.184h-0.048l-0.12,1.92h-1.824c0.072-0.792,0.096-1.968,0.096-3V116.758z
		 M535.405,129.144c0,0.264,0.024,0.528,0.072,0.768c0.408,1.464,1.656,2.472,3.168,2.472c2.232,0,3.528-1.8,3.528-4.464
		c0-2.353-1.2-4.345-3.456-4.345c-1.44,0-2.784,1.008-3.192,2.592c-0.072,0.264-0.12,0.552-0.12,0.888V129.144z"/>
	<path fill="#FFFFFF" d="M546.949,116.758h2.112V133.8h-2.112V116.758z"/>
	<path fill="#FFFFFF" d="M560.75,131.016c0,1.008,0.048,1.992,0.168,2.784h-1.896l-0.192-1.464h-0.072
		c-0.624,0.912-1.896,1.729-3.552,1.729c-2.353,0-3.553-1.656-3.553-3.336c0-2.808,2.497-4.344,6.985-4.32v-0.24
		c0-0.96-0.264-2.712-2.64-2.688c-1.104,0-2.232,0.312-3.048,0.864l-0.48-1.416c0.96-0.6,2.376-1.008,3.84-1.008
		c3.576,0,4.44,2.424,4.44,4.752V131.016z M558.685,127.871c-2.304-0.048-4.92,0.36-4.92,2.616c0,1.393,0.912,2.017,1.968,2.017
		c1.536,0,2.52-0.96,2.856-1.944c0.072-0.216,0.096-0.456,0.096-0.672V127.871z"/>
	<path fill="#FFFFFF" d="M564.132,116.758h2.112v7.249h0.048c0.336-0.6,0.864-1.152,1.512-1.488c0.624-0.384,1.368-0.6,2.16-0.6
		c1.561,0,4.057,0.96,4.057,4.968v6.913h-2.112v-6.672c0-1.896-0.696-3.457-2.688-3.457c-1.368,0-2.424,0.96-2.833,2.112
		c-0.12,0.288-0.144,0.6-0.144,1.008v7.009h-2.112V116.758z"/>
	<path fill="#FFFFFF" d="M577.452,116.758h2.112v7.272h0.048c0.744-1.296,2.089-2.112,3.96-2.112c2.881,0,4.896,2.4,4.896,5.904
		c0,4.176-2.64,6.241-5.232,6.241c-1.68,0-3-0.648-3.888-2.184h-0.048l-0.12,1.92h-1.824c0.071-0.792,0.096-1.968,0.096-3V116.758z
		 M579.564,129.144c0,0.264,0.023,0.528,0.072,0.768c0.408,1.464,1.656,2.472,3.168,2.472c2.232,0,3.528-1.8,3.528-4.464
		c0-2.353-1.2-4.345-3.456-4.345c-1.44,0-2.784,1.008-3.192,2.592c-0.072,0.264-0.12,0.552-0.12,0.888V129.144z"/>
	<path fill="#FFFFFF" d="M591.107,116.758h2.113V133.8h-2.113V116.758z"/>
	<path fill="#FFFFFF" d="M604.908,131.016c0,1.008,0.049,1.992,0.168,2.784h-1.896l-0.191-1.464h-0.072
		c-0.623,0.912-1.896,1.729-3.552,1.729c-2.353,0-3.553-1.656-3.553-3.336c0-2.808,2.497-4.344,6.985-4.32v-0.24
		c0-0.96-0.265-2.712-2.641-2.688c-1.104,0-2.232,0.312-3.049,0.864l-0.479-1.416c0.96-0.6,2.376-1.008,3.841-1.008
		c3.576,0,4.439,2.424,4.439,4.752V131.016z M602.844,127.871c-2.304-0.048-4.92,0.36-4.92,2.616c0,1.393,0.912,2.017,1.969,2.017
		c1.535,0,2.52-0.96,2.855-1.944c0.072-0.216,0.096-0.456,0.096-0.672V127.871z"/>
	<path fill="#FFFFFF" d="M608.291,116.758h2.113v7.249h0.047c0.337-0.6,0.865-1.152,1.513-1.488c0.624-0.384,1.368-0.6,2.16-0.6
		c1.561,0,4.057,0.96,4.057,4.968v6.913h-2.112v-6.672c0-1.896-0.696-3.457-2.688-3.457c-1.369,0-2.425,0.96-2.833,2.112
		c-0.12,0.288-0.144,0.6-0.144,1.008v7.009h-2.113V116.758z"/>
	<path fill="#FFFFFF" d="M621.611,116.758h2.112v7.272h0.048c0.744-1.296,2.088-2.112,3.961-2.112c2.88,0,4.896,2.4,4.896,5.904
		c0,4.176-2.641,6.241-5.232,6.241c-1.681,0-3-0.648-3.889-2.184h-0.049l-0.119,1.92h-1.824c0.072-0.792,0.096-1.968,0.096-3
		V116.758z M623.724,129.144c0,0.264,0.024,0.528,0.072,0.768c0.407,1.464,1.655,2.472,3.168,2.472c2.232,0,3.528-1.8,3.528-4.464
		c0-2.353-1.2-4.345-3.456-4.345c-1.44,0-2.784,1.008-3.192,2.592c-0.072,0.264-0.12,0.552-0.12,0.888V129.144z"/>
	<path fill="#FFFFFF" d="M635.268,116.758h2.111V133.8h-2.111V116.758z"/>
	<path fill="#FFFFFF" d="M649.068,131.016c0,1.008,0.047,1.992,0.168,2.784h-1.896l-0.192-1.464h-0.071
		c-0.625,0.912-1.896,1.729-3.553,1.729c-2.353,0-3.553-1.656-3.553-3.336c0-2.808,2.496-4.344,6.984-4.32v-0.24
		c0-0.96-0.264-2.712-2.64-2.688c-1.104,0-2.232,0.312-3.048,0.864l-0.48-1.416c0.96-0.6,2.376-1.008,3.84-1.008
		c3.576,0,4.441,2.424,4.441,4.752V131.016z M647.004,127.871c-2.305-0.048-4.921,0.36-4.921,2.616c0,1.393,0.912,2.017,1.968,2.017
		c1.537,0,2.521-0.96,2.857-1.944c0.071-0.216,0.096-0.456,0.096-0.672V127.871z"/>
	<path fill="#FFFFFF" d="M652.451,116.758h2.111v7.249h0.049c0.336-0.6,0.863-1.152,1.512-1.488c0.624-0.384,1.368-0.6,2.16-0.6
		c1.561,0,4.057,0.96,4.057,4.968v6.913h-2.112v-6.672c0-1.896-0.696-3.457-2.688-3.457c-1.367,0-2.424,0.96-2.832,2.112
		c-0.12,0.288-0.145,0.6-0.145,1.008v7.009h-2.111V116.758z"/>
	<path fill="#FFFFFF" d="M665.771,116.758h2.112v7.272h0.048c0.744-1.296,2.089-2.112,3.96-2.112c2.881,0,4.896,2.4,4.896,5.904
		c0,4.176-2.64,6.241-5.232,6.241c-1.68,0-3-0.648-3.888-2.184h-0.048l-0.12,1.92h-1.824c0.071-0.792,0.096-1.968,0.096-3V116.758z
		 M667.883,129.144c0,0.264,0.023,0.528,0.072,0.768c0.408,1.464,1.656,2.472,3.168,2.472c2.232,0,3.528-1.8,3.528-4.464
		c0-2.353-1.2-4.345-3.456-4.345c-1.44,0-2.784,1.008-3.192,2.592c-0.072,0.264-0.12,0.552-0.12,0.888V129.144z"/>
	<path fill="#FFFFFF" d="M679.426,116.758h2.113V133.8h-2.113V116.758z"/>
	<path fill="#FFFFFF" d="M693.227,131.016c0,1.008,0.049,1.992,0.168,2.784h-1.896l-0.191-1.464h-0.072
		c-0.623,0.912-1.896,1.729-3.552,1.729c-2.353,0-3.553-1.656-3.553-3.336c0-2.808,2.497-4.344,6.985-4.32v-0.24
		c0-0.96-0.265-2.712-2.641-2.688c-1.104,0-2.232,0.312-3.049,0.864l-0.479-1.416c0.96-0.6,2.376-1.008,3.841-1.008
		c3.576,0,4.439,2.424,4.439,4.752V131.016z M691.162,127.871c-2.304-0.048-4.92,0.36-4.92,2.616c0,1.393,0.912,2.017,1.969,2.017
		c1.535,0,2.52-0.96,2.855-1.944c0.072-0.216,0.096-0.456,0.096-0.672V127.871z"/>
	<path fill="#FFFFFF" d="M696.609,116.758h2.113v7.249h0.047c0.337-0.6,0.865-1.152,1.513-1.488c0.624-0.384,1.368-0.6,2.16-0.6
		c1.561,0,4.057,0.96,4.057,4.968v6.913h-2.112v-6.672c0-1.896-0.696-3.457-2.688-3.457c-1.369,0-2.425,0.96-2.833,2.112
		c-0.12,0.288-0.144,0.6-0.144,1.008v7.009h-2.113V116.758z"/>
	<path fill="#FFFFFF" d="M709.93,116.758h2.112v7.272h0.048c0.744-1.296,2.088-2.112,3.961-2.112c2.88,0,4.896,2.4,4.896,5.904
		c0,4.176-2.641,6.241-5.232,6.241c-1.681,0-3-0.648-3.889-2.184h-0.049l-0.119,1.92h-1.824c0.072-0.792,0.096-1.968,0.096-3
		V116.758z M712.042,129.144c0,0.264,0.024,0.528,0.072,0.768c0.407,1.464,1.655,2.472,3.168,2.472c2.232,0,3.528-1.8,3.528-4.464
		c0-2.353-1.2-4.345-3.456-4.345c-1.44,0-2.784,1.008-3.192,2.592c-0.072,0.264-0.12,0.552-0.12,0.888V129.144z"/>
	<path fill="#FFFFFF" d="M723.585,116.758h2.112V133.8h-2.112V116.758z"/>
	<path fill="#FFFFFF" d="M737.386,131.016c0,1.008,0.049,1.992,0.168,2.784h-1.896l-0.192-1.464h-0.072
		c-0.624,0.912-1.896,1.729-3.552,1.729c-2.353,0-3.553-1.656-3.553-3.336c0-2.808,2.496-4.344,6.984-4.32v-0.24
		c0-0.96-0.264-2.712-2.64-2.688c-1.104,0-2.232,0.312-3.049,0.864l-0.479-1.416c0.96-0.6,2.376-1.008,3.84-1.008
		c3.577,0,4.44,2.424,4.44,4.752V131.016z M735.322,127.871c-2.305-0.048-4.921,0.36-4.921,2.616c0,1.393,0.912,2.017,1.969,2.017
		c1.536,0,2.52-0.96,2.855-1.944c0.072-0.216,0.097-0.456,0.097-0.672V127.871z"/>
	<path fill="#FFFFFF" d="M740.769,116.758h2.112v7.249h0.048c0.336-0.6,0.864-1.152,1.513-1.488c0.624-0.384,1.368-0.6,2.16-0.6
		c1.56,0,4.056,0.96,4.056,4.968v6.913h-2.111v-6.672c0-1.896-0.696-3.457-2.688-3.457c-1.368,0-2.425,0.96-2.832,2.112
		c-0.12,0.288-0.145,0.6-0.145,1.008v7.009h-2.112V116.758z"/>
</g>
</svg>
