<?xml version="1.0" encoding="utf-8"?>
<!-- Generator: Adobe Illustrator 15.0.2, SVG Export Plug-In . SVG Version: 6.00 Build 0)  -->
<!DOCTYPE svg PUBLIC "-//W3C//DTD SVG 1.1//EN" "http://www.w3.org/Graphics/SVG/1.1/DTD/svg11.dtd">
<svg version="1.1" id="Capa_1" xmlns="http://www.w3.org/2000/svg" xmlns:xlink="http://www.w3.org/1999/xlink" x="0px" y="0px"
	 width="25px" height="25px" viewBox="241.439 243.5 25 25" enable-background="new 241.439 243.5 25 25" xml:space="preserve">
<g>
	<rect x="241.439" y="243.5" fill="#FF6694" width="25" height="25"/>
	<path fill="#FFFFFF" d="M255.482,256l7.432-7.431c0.426-0.426,0.426-1.117,0-1.542c-0.426-0.426-1.116-0.426-1.543,0l-7.431,7.432
		l-7.433-7.432c-0.426-0.426-1.117-0.426-1.542,0c-0.426,0.425-0.426,1.116,0,1.542l7.432,7.431l-7.432,7.433
		c-0.426,0.425-0.426,1.116,0,1.542c0.213,0.213,0.492,0.319,0.771,0.319c0.28,0,0.559-0.106,0.771-0.319l7.433-7.433l7.432,7.433
		c0.213,0.213,0.492,0.319,0.771,0.319c0.28,0,0.56-0.106,0.771-0.319c0.426-0.427,0.426-1.117,0-1.542L255.482,256z"/>
</g>
</svg>
