<?xml version="1.0" encoding="utf-8"?>
<!-- Generator: Adobe Illustrator 15.0.2, SVG Export Plug-In . SVG Version: 6.00 Build 0)  -->
<!DOCTYPE svg PUBLIC "-//W3C//DTD SVG 1.1//EN" "http://www.w3.org/Graphics/SVG/1.1/DTD/svg11.dtd">
<svg version="1.1" id="Слой_1" xmlns="http://www.w3.org/2000/svg" xmlns:xlink="http://www.w3.org/1999/xlink" x="0px" y="0px"
	 width="50px" height="49.924px" viewBox="0 0 50 49.924" enable-background="new 0 0 50 49.924" xml:space="preserve">
<g>
	<g>
		<g>
			<defs>
				<polygon id="SVGID_1_" points="0,41.782 50,41.782 25,0 				"/>
			</defs>
			<clipPath id="SVGID_2_">
				<use xlink:href="#SVGID_1_"  overflow="visible"/>
			</clipPath>
			<path clip-path="url(#SVGID_2_)" fill="#666666" d="M-2.865,44.362c8.263-15.331,16.527-30.664,24.79-45.996
				C28.62-2.32,32.585-1.437,33.82,1.012C36.725,6.778,24.496,21.229-2.865,44.362"/>
		</g>
		<g>
			<defs>
				<polygon id="SVGID_3_" points="0,41.782 50,41.782 25,0 				"/>
			</defs>
			<clipPath id="SVGID_4_">
				<use xlink:href="#SVGID_3_"  overflow="visible"/>
			</clipPath>
			<path clip-path="url(#SVGID_4_)" fill="#4D4D4D" d="M-2.098,43.995C10.526,30.944,23.149,17.893,35.773,4.842
				c7.139,1.755,11.025,4.146,11.664,7.174C48.938,19.145,32.427,29.806-2.098,43.995"/>
		</g>
		<g>
			<defs>
				<polygon id="SVGID_5_" points="0,41.782 50,41.782 25,0 				"/>
			</defs>
			<clipPath id="SVGID_6_">
				<use xlink:href="#SVGID_5_"  overflow="visible"/>
			</clipPath>
			<path clip-path="url(#SVGID_6_)" fill="#333333" d="M-2.726,43.169C12.193,35.64,27.111,28.108,42.029,20.58
				c5.58,3.583,8.171,6.769,7.771,9.554C48.859,36.69,31.352,41.036-2.726,43.169"/>
		</g>
		<g>
			<defs>
				<polygon id="SVGID_7_" points="0,41.782 50,41.782 25,0 				"/>
			</defs>
			<clipPath id="SVGID_8_">
				<use xlink:href="#SVGID_7_"  overflow="visible"/>
			</clipPath>
			<path clip-path="url(#SVGID_8_)" fill="#1A1A1A" d="M-2.113,42.286c16.41-3.633,32.82-7.264,49.23-10.896
				c4.455,4.834,6.123,8.547,5.004,11.145C49.488,48.646,31.41,48.563-2.113,42.286"/>
		</g>
	</g>
	<g>
		<path d="M0.892,48.175v1.749H0.58v-4.362h1.091c0.464,0,0.82,0.104,1.065,0.313c0.246,0.208,0.369,0.512,0.369,0.911
			c0,0.405-0.137,0.737-0.412,0.999c-0.275,0.261-0.659,0.392-1.152,0.392L0.892,48.175L0.892,48.175z M0.892,45.838v2.06h0.644
			c0.408,0,0.718-0.094,0.93-0.28c0.212-0.187,0.318-0.453,0.318-0.796c0-0.655-0.39-0.982-1.17-0.982L0.892,45.838L0.892,45.838z"
			/>
		<path d="M9.247,49.924L8.73,48.567H6.768l-0.517,1.356H5.907l1.706-4.362H7.91l1.687,4.362H9.247z M7.859,46.272
			c-0.023-0.062-0.042-0.121-0.057-0.181c-0.015-0.05-0.03-0.101-0.047-0.151H7.743c-0.036,0.135-0.071,0.242-0.104,0.326
			l-0.76,2.022h1.744L7.859,46.272z"/>
		<path d="M13.883,48.267v1.657h-0.309v-1.651l-1.384-2.711h0.35l1.053,2.103c0.038,0.073,0.085,0.181,0.142,0.321h0.012
			c0.029-0.073,0.081-0.18,0.155-0.315l1.104-2.108h0.337L13.883,48.267z"/>
		<path d="M20.443,45.838v4.086h-0.309v-4.086h-1.305v-0.276h2.92v0.276H20.443z"/>
		<path d="M28.384,49.924v-2.093h-2.59v2.093h-0.312v-4.362h0.312v1.996h2.59v-1.996h0.31v4.362H28.384z"/>
		<path d="M32.823,49.924v-4.362h2.112v0.276h-1.801v1.749h1.672v0.273h-1.672v1.789h1.904v0.273L32.823,49.924L32.823,49.924z"/>
		<path d="M40.884,50c-0.64,0-1.147-0.205-1.528-0.614c-0.379-0.41-0.568-0.941-0.568-1.598c0-0.695,0.195-1.253,0.585-1.672
			c0.392-0.419,0.923-0.629,1.599-0.629c0.608,0,1.103,0.201,1.479,0.604c0.377,0.402,0.565,0.931,0.565,1.584
			c0,0.722-0.193,1.29-0.58,1.703C42.048,49.793,41.531,50,40.884,50z M40.915,45.763c-0.524,0-0.958,0.184-1.298,0.551
			s-0.51,0.848-0.51,1.441c0,0.6,0.16,1.078,0.482,1.436c0.321,0.354,0.75,0.533,1.286,0.533c0.56,0,1.002-0.177,1.327-0.527
			c0.326-0.353,0.488-0.844,0.488-1.473c0-0.615-0.158-1.098-0.478-1.442S41.464,45.763,40.915,45.763z"/>
		<path d="M46.762,49.769v-0.344c0.323,0.199,0.651,0.299,0.983,0.299c0.354,0,0.621-0.07,0.804-0.211
			c0.184-0.142,0.274-0.339,0.274-0.593c0-0.224-0.062-0.401-0.185-0.534s-0.39-0.313-0.8-0.543
			c-0.459-0.258-0.749-0.473-0.87-0.646c-0.121-0.175-0.184-0.374-0.184-0.601c0-0.31,0.124-0.57,0.372-0.785
			c0.247-0.215,0.579-0.322,0.993-0.322c0.27,0,0.539,0.043,0.808,0.131v0.314c-0.265-0.115-0.548-0.172-0.849-0.172
			c-0.307,0-0.551,0.074-0.729,0.225c-0.18,0.15-0.271,0.341-0.271,0.572c0,0.224,0.063,0.399,0.186,0.531
			c0.123,0.133,0.389,0.313,0.796,0.539c0.423,0.23,0.704,0.438,0.845,0.616c0.14,0.179,0.209,0.386,0.209,0.619
			c0,0.335-0.121,0.606-0.36,0.817C48.543,49.896,48.203,50,47.764,50c-0.154,0-0.334-0.022-0.537-0.069
			S46.868,49.829,46.762,49.769z"/>
	</g>
</g>
</svg>
