<?xml version="1.0" encoding="utf-8"?>
<!-- Generator: Adobe Illustrator 15.0.2, SVG Export Plug-In . SVG Version: 6.00 Build 0)  -->
<!DOCTYPE svg PUBLIC "-//W3C//DTD SVG 1.1//EN" "http://www.w3.org/Graphics/SVG/1.1/DTD/svg11.dtd">
<svg version="1.1" id="Слой_1" xmlns="http://www.w3.org/2000/svg" xmlns:xlink="http://www.w3.org/1999/xlink" x="0px" y="0px"
	 width="1920px" height="250px" viewBox="0 -25 1920 250" enable-background="new 0 -25 1920 250" xml:space="preserve">
<radialGradient id="SVGID_1_" cx="1281.9922" cy="126.1914" r="306.515" gradientTransform="matrix(2.2622 0 0 -1.4139 -1940.1226 278.4187)" gradientUnits="userSpaceOnUse">
	<stop  offset="0" style="stop-color:#FFFFFF;stop-opacity:0.37"/>
	<stop  offset="0" style="stop-color:#E5E5E5;stop-opacity:0.3747"/>
	<stop  offset="0" style="stop-color:#BDBCBC;stop-opacity:0.3831"/>
	<stop  offset="0" style="stop-color:#989697;stop-opacity:0.3927"/>
	<stop  offset="0" style="stop-color:#787676;stop-opacity:0.403"/>
	<stop  offset="0" style="stop-color:#5D5A5B;stop-opacity:0.4145"/>
	<stop  offset="0" style="stop-color:#484445;stop-opacity:0.4274"/>
	<stop  offset="0" style="stop-color:#373334;stop-opacity:0.4425"/>
	<stop  offset="0" style="stop-color:#2C2829;stop-opacity:0.4612"/>
	<stop  offset="0" style="stop-color:#252122;stop-opacity:0.4873"/>
	<stop  offset="0" style="stop-color:#231F20;stop-opacity:0.56"/>
	<stop  offset="0.1413" style="stop-color:#231F20;stop-opacity:0.6222"/>
	<stop  offset="1" style="stop-color:#231F20"/>
</radialGradient>
<rect y="-25" opacity="0.9" fill="url(#SVGID_1_)" enable-background="new    " width="1920" height="250"/>
<g>
	<path fill="#FFFFFF" d="M876.758,93.561l2.502-0.219c0.118,1.003,0.394,1.825,0.827,2.468c0.433,0.643,1.105,1.162,2.017,1.559
		c0.911,0.396,1.937,0.595,3.076,0.595c1.012,0,1.905-0.15,2.68-0.451c0.774-0.301,1.351-0.713,1.729-1.237
		c0.378-0.524,0.567-1.096,0.567-1.716c0-0.629-0.183-1.178-0.547-1.647c-0.365-0.469-0.966-0.863-1.805-1.183
		c-0.538-0.209-1.728-0.535-3.568-0.978c-1.841-0.442-3.131-0.859-3.869-1.251c-0.957-0.501-1.67-1.123-2.14-1.866
		c-0.47-0.743-0.704-1.574-0.704-2.495c0-1.012,0.287-1.957,0.861-2.837c0.574-0.879,1.413-1.547,2.516-2.003
		c1.103-0.456,2.329-0.684,3.678-0.684c1.485,0,2.796,0.239,3.931,0.718s2.007,1.183,2.618,2.112c0.61,0.93,0.938,1.982,0.984,3.158
		l-2.543,0.191c-0.137-1.267-0.6-2.224-1.388-2.871c-0.789-0.647-1.953-0.971-3.493-0.971c-1.604,0-2.773,0.294-3.507,0.882
		c-0.734,0.588-1.101,1.297-1.101,2.126c0,0.72,0.26,1.313,0.779,1.777c0.51,0.465,1.843,0.941,3.999,1.429
		c2.155,0.488,3.634,0.914,4.437,1.278c1.167,0.538,2.028,1.219,2.584,2.044c0.556,0.825,0.834,1.775,0.834,2.851
		c0,1.066-0.306,2.071-0.916,3.015c-0.611,0.943-1.488,1.677-2.632,2.201c-1.144,0.524-2.432,0.786-3.862,0.786
		c-1.814,0-3.334-0.265-4.56-0.793c-1.226-0.528-2.188-1.324-2.885-2.386C877.161,96.102,876.794,94.9,876.758,93.561z"/>
	<path fill="#FFFFFF" d="M895.105,92.74c0-2.688,0.747-4.68,2.242-5.975c1.249-1.075,2.771-1.613,4.566-1.613
		c1.996,0,3.627,0.654,4.895,1.962c1.267,1.308,1.9,3.115,1.9,5.421c0,1.869-0.28,3.338-0.841,4.409
		c-0.561,1.071-1.376,1.903-2.447,2.495c-1.071,0.592-2.24,0.889-3.507,0.889c-2.033,0-3.676-0.651-4.929-1.955
		C895.732,97.07,895.105,95.192,895.105,92.74z M897.635,92.74c0,1.859,0.405,3.252,1.217,4.177
		c0.811,0.925,1.832,1.388,3.063,1.388c1.221,0,2.237-0.465,3.049-1.395c0.811-0.93,1.217-2.347,1.217-4.252
		c0-1.795-0.408-3.156-1.224-4.081c-0.816-0.925-1.83-1.388-3.042-1.388c-1.23,0-2.251,0.46-3.063,1.381
		C898.04,89.491,897.635,90.881,897.635,92.74z"/>
	<path fill="#FFFFFF" d="M911.594,100V85.48h2.201v2.037c0.456-0.711,1.062-1.283,1.818-1.716c0.756-0.433,1.618-0.649,2.584-0.649
		c1.075,0,1.957,0.224,2.646,0.67c0.688,0.447,1.173,1.071,1.456,1.873c1.148-1.695,2.643-2.543,4.484-2.543
		c1.44,0,2.547,0.399,3.322,1.196c0.774,0.798,1.162,2.026,1.162,3.685V100h-2.447v-9.146c0-0.984-0.08-1.693-0.239-2.126
		c-0.16-0.433-0.449-0.781-0.868-1.046c-0.419-0.264-0.912-0.396-1.477-0.396c-1.021,0-1.869,0.34-2.543,1.019
		c-0.675,0.679-1.012,1.766-1.012,3.261V100h-2.461v-9.434c0-1.094-0.201-1.914-0.602-2.461c-0.401-0.547-1.058-0.82-1.969-0.82
		c-0.693,0-1.333,0.183-1.921,0.547c-0.588,0.365-1.014,0.898-1.278,1.6c-0.265,0.702-0.396,1.714-0.396,3.035V100H911.594z"/>
	<path fill="#FFFFFF" d="M944.857,95.324l2.543,0.314c-0.401,1.486-1.144,2.639-2.229,3.459c-1.085,0.82-2.47,1.23-4.156,1.23
		c-2.124,0-3.808-0.654-5.052-1.962c-1.244-1.308-1.866-3.142-1.866-5.503c0-2.442,0.629-4.338,1.887-5.688
		c1.258-1.349,2.889-2.023,4.895-2.023c1.941,0,3.527,0.661,4.758,1.982c1.23,1.322,1.846,3.181,1.846,5.578
		c0,0.146-0.005,0.365-0.014,0.656h-10.828c0.091,1.595,0.542,2.816,1.354,3.664c0.811,0.848,1.823,1.271,3.035,1.271
		c0.902,0,1.672-0.237,2.311-0.711C943.978,97.12,944.483,96.363,944.857,95.324z M936.777,91.346h8.107
		c-0.109-1.221-0.419-2.137-0.93-2.748c-0.784-0.948-1.8-1.422-3.049-1.422c-1.13,0-2.081,0.378-2.851,1.135
		C937.285,89.067,936.859,90.079,936.777,91.346z"/>
	<path fill="#FFFFFF" d="M963.178,100V82.322h-6.604v-2.365h15.887v2.365h-6.631V100H963.178z"/>
	<path fill="#FFFFFF" d="M981.703,95.324l2.543,0.314c-0.401,1.486-1.145,2.639-2.229,3.459c-1.085,0.82-2.471,1.23-4.156,1.23
		c-2.124,0-3.808-0.654-5.052-1.962c-1.244-1.308-1.866-3.142-1.866-5.503c0-2.442,0.629-4.338,1.887-5.688
		c1.258-1.349,2.889-2.023,4.895-2.023c1.941,0,3.527,0.661,4.758,1.982c1.23,1.322,1.846,3.181,1.846,5.578
		c0,0.146-0.005,0.365-0.014,0.656h-10.828c0.091,1.595,0.542,2.816,1.354,3.664c0.811,0.848,1.822,1.271,3.035,1.271
		c0.902,0,1.672-0.237,2.311-0.711C980.823,97.12,981.329,96.363,981.703,95.324z M973.623,91.346h8.107
		c-0.109-1.221-0.42-2.137-0.93-2.748c-0.784-0.948-1.801-1.422-3.049-1.422c-1.131,0-2.08,0.378-2.851,1.135
		C974.131,89.067,973.705,90.079,973.623,91.346z"/>
	<path fill="#FFFFFF" d="M985.695,100L991,92.453l-4.908-6.973h3.076l2.229,3.404c0.419,0.647,0.756,1.189,1.012,1.627
		c0.4-0.602,0.77-1.135,1.107-1.6l2.447-3.432h2.939l-5.018,6.836l5.4,7.684h-3.021l-2.98-4.512l-0.793-1.217L988.676,100H985.695z"
		/>
	<path fill="#FFFFFF" d="M1006.709,97.799l0.355,2.174c-0.693,0.146-1.313,0.219-1.859,0.219c-0.894,0-1.586-0.142-2.078-0.424
		s-0.839-0.654-1.039-1.114c-0.201-0.46-0.301-1.429-0.301-2.905v-8.354h-1.805V85.48h1.805v-3.596l2.447-1.477v5.072h2.475v1.914
		h-2.475v8.49c0,0.702,0.043,1.153,0.13,1.354c0.087,0.201,0.228,0.36,0.424,0.479c0.196,0.119,0.476,0.178,0.841,0.178
		C1005.902,97.895,1006.262,97.863,1006.709,97.799z"/>
	<path fill="#FFFFFF" d="M1017.291,100V79.957h2.652v8.23h10.418v-8.23h2.652V100h-2.652v-9.447h-10.418V100H1017.291z"/>
	<path fill="#FFFFFF" d="M1047.055,95.324l2.543,0.314c-0.401,1.486-1.145,2.639-2.229,3.459c-1.085,0.82-2.471,1.23-4.156,1.23
		c-2.124,0-3.808-0.654-5.052-1.962c-1.244-1.308-1.866-3.142-1.866-5.503c0-2.442,0.629-4.338,1.887-5.688
		c1.258-1.349,2.889-2.023,4.895-2.023c1.941,0,3.527,0.661,4.758,1.982c1.23,1.322,1.846,3.181,1.846,5.578
		c0,0.146-0.005,0.365-0.014,0.656h-10.828c0.091,1.595,0.542,2.816,1.354,3.664c0.811,0.848,1.822,1.271,3.035,1.271
		c0.902,0,1.672-0.237,2.311-0.711C1046.175,97.12,1046.681,96.363,1047.055,95.324z M1038.975,91.346h8.107
		c-0.109-1.221-0.42-2.137-0.93-2.748c-0.784-0.948-1.801-1.422-3.049-1.422c-1.131,0-2.08,0.378-2.851,1.135
		C1039.482,89.067,1039.057,90.079,1038.975,91.346z"/>
	<path fill="#FFFFFF" d="M1052.66,100V85.48h2.215v2.201c0.564-1.03,1.087-1.709,1.565-2.037s1.005-0.492,1.579-0.492
		c0.829,0,1.672,0.265,2.529,0.793l-0.848,2.283c-0.602-0.355-1.203-0.533-1.805-0.533c-0.538,0-1.021,0.162-1.449,0.485
		c-0.429,0.324-0.734,0.772-0.916,1.347c-0.273,0.875-0.41,1.832-0.41,2.871V100H1052.66z"/>
	<path fill="#FFFFFF" d="M1071.951,95.324l2.543,0.314c-0.401,1.486-1.144,2.639-2.229,3.459s-2.47,1.23-4.156,1.23
		c-2.124,0-3.808-0.654-5.052-1.962c-1.244-1.308-1.866-3.142-1.866-5.503c0-2.442,0.629-4.338,1.887-5.688
		c1.258-1.349,2.89-2.023,4.895-2.023c1.941,0,3.527,0.661,4.758,1.982c1.23,1.322,1.846,3.181,1.846,5.578
		c0,0.146-0.005,0.365-0.014,0.656h-10.828c0.091,1.595,0.542,2.816,1.354,3.664s1.823,1.271,3.035,1.271
		c0.902,0,1.673-0.237,2.311-0.711C1071.071,97.12,1071.577,96.363,1071.951,95.324z M1063.871,91.346h8.107
		c-0.109-1.221-0.419-2.137-0.93-2.748c-0.784-0.948-1.8-1.422-3.049-1.422c-1.13,0-2.08,0.378-2.851,1.135
		C1064.379,89.067,1063.953,90.079,1063.871,91.346z"/>
</g>
</svg>
